<svg xmlns="http://www.w3.org/2000/svg" viewBox="0 0 800 205"><defs><style>.cls-1{fill:#fff;}.cls-2{fill:none;}</style></defs><g id="Layer_2" data-name="Layer 2"><g id="Layer_1-2" data-name="Layer 1"><path class="cls-1" d="M515.77,158.15V40.79c23.09.87,45.76.54,68.13,3,16.83,1.83,25.31,12.62,25.94,26.89.44,10.07-3.67,17.73-11.83,23.43-2,1.38-4,2.65-6.35,4.17,21.72,9,29,21.27,23.23,38.91-4.79,14.66-17.45,19.85-30.73,20.63C561.63,159.11,539,158.15,515.77,158.15Zm8.8-7.09c19,0,37.22.26,55.38-.17,4.88-.12,9.95-1.78,14.51-3.71,10.54-4.45,15.27-15.13,12.4-26.15-2.6-10-10.07-15.58-19.31-16-20.8-1-41.68-.31-63-.31Zm0-56.35c18.51,0,36.41.8,54.19-.26,13.27-.8,21.59-10,22-21.14.44-12-6-21.19-20-22.44-18.45-1.64-37.17-.4-56.19-.4Z"></path><path class="cls-1" d="M271,57.64V157.92l-8.63.59V39.61c4.59,2.82,8.45,4.08,10.67,6.72C297.29,75.08,321.29,104,345.38,133c2.26,2.71,4.58,5.38,8.41,9.88V42.22l8.59-.59V160.81c-4.85-3.29-8.75-4.89-11.15-7.73-24.63-29.17-49-58.55-73.48-87.86C276,63.15,274.15,61.18,271,57.64Z"></path><path class="cls-1" d="M484.16,51.65l-3.28,6.85c-13.71-7.53-28-10.68-43.17-8.89a55.1,55.1,0,0,0-15.26,4.06c-8.09,3.5-12.68,10-12.6,19,.07,8.69,5.58,14,12.93,16.81,9.1,3.43,18.7,5.57,28.06,8.32,7.23,2.12,14.61,3.86,21.59,6.59,10.78,4.21,17.79,12,17.5,24s-7.09,20.28-17.94,25a67.52,67.52,0,0,1-42.76,3.7c-9.61-2.22-18.88-6.5-27.82-10.83-5-2.42-4.53-3.32.45-8.41,17.25,12.4,36.48,16.22,57.18,11.71a38.78,38.78,0,0,0,14.29-6.48c9.86-7.23,9.72-21.59-.51-28.3-5.69-3.73-12.5-6-19.09-8.07-10.4-3.21-21.13-5.35-31.55-8.52-14.13-4.3-21.27-13.14-21.43-25.46-.17-12.66,7.18-22.53,20.72-27.16C442.82,38.27,463.26,41.14,484.16,51.65Z"></path><path class="cls-1" d="M101.2,57.89l-4.4,5C69,40.45,35.49,49.08,20.6,66.44,4.13,85.63,4.42,116,21.29,134.61c15.45,17.07,48.88,24.67,74.29,3.16l5,4.37c-19.07,21.61-58.73,22.08-81.76,1.46C-4.82,122.44-6.43,83.65,15.35,60.14,36.93,36.83,77.52,35.29,101.2,57.89Z"></path><path class="cls-1" d="M776.18,42c2.19,5.66.1,7.39-5.15,7.32-12.83-.16-25.67,0-39.68,0V158l-9.45.52V49.31c-14.19,0-27.26-.15-40.32.07-5.82.1-6.69-2.35-4.84-7.34Z"></path><path class="cls-1" d="M650,157.55c-5.61,2.11-7.5.55-7.48-4.43.08-35.49,0-71,.2-106.48,0-1.7,2.31-3.38,3.55-5.07,1.24,1.67,3.56,3.34,3.57,5C650,83.45,650,120.31,650,157.55Z"></path><path class="cls-1" d="M176.53,160.08a59.87,59.87,0,1,1,59.87-59.87A59.93,59.93,0,0,1,176.53,160.08Zm0-106.27a46.4,46.4,0,1,0,46.4,46.4A46.45,46.45,0,0,0,176.53,53.81Z"></path><path class="cls-1" d="M176.53,62.43a37.78,37.78,0,1,0,37.78,37.78A37.78,37.78,0,0,0,176.53,62.43Zm4.64,59.8h-9.29v-44h9.29Z"></path><rect class="cls-2" width="800" height="205"></rect></g></g></svg>