<svg xmlns="http://www.w3.org/2000/svg" viewBox="0 0 800 205"><defs><style>.cls-1{fill:#fff;}.cls-2{fill:none;}</style></defs><g id="Layer_2" data-name="Layer 2"><g id="Layer_1-2" data-name="Layer 1"><path class="cls-1" d="M682.08,113.41c-1,4-1.59,8.17-3,12-7.46,20.31-28.78,32-50.24,27.69a44.15,44.15,0,1,1,52.77-48.77c.1.8.32,1.57.48,2.35Zm-44.55,22a25.77,25.77,0,0,0,26-25.5C663.64,96.17,652,84.4,638.2,84.25a25.57,25.57,0,1,0-.67,51.13Z"></path><path class="cls-1" d="M78.57,57.26c-21,1-36.65,13.07-41.73,32.17-7.23,27.17,13.84,53.93,42,53.36a42.42,42.42,0,0,0,42-39.53c.2-2.44.84-3.35,3.39-3.32,9.55.13,19.12.15,28.67,0,2.85,0,3.45,1.08,3.31,3.6-1.39,25-12.07,45.19-32.29,59.81-45.73,33.07-110.25,8.12-122.15-47-9.84-45.53,23-89.9,69.47-93.89,7.14-.62,7.12-.62,7.15,6.5q0,14.18.14,28.35Z"></path><path class="cls-1" d="M259.35,114h-3.28c-6.81,0-13.62,0-20.43,0-2,0-2.94-.57-2.89-2.76.12-5.08.11-10.16,0-15.24,0-2,.65-2.7,2.63-2.69q21.81.06,43.62,0c1.48,0,2.6.24,2.68,2.07.68,15.14-1.09,29.68-10.65,42.21-11.61,15.23-27.36,21.81-46.11,20.53-31-2.12-52.94-27.48-51.26-58.44,1.44-26.5,23.92-48.89,50.6-50.57,16.83-1.06,31.1,4.46,43.14,16.09.94.9,1.76,1.91,2.93,3.19l-15.85,13c-7.55-8.06-16.58-12.24-27.52-11.83A33.75,33.75,0,0,0,207,77a34.2,34.2,0,0,0,25.59,60.65C245.94,135.88,257.85,125.53,259.35,114Z"></path><path class="cls-1" d="M357.46,151.62c-.1-2-.18-3.52-.29-5.49-11.57,7.55-23.82,9.79-36.9,6.42a42.89,42.89,0,0,1-24-16.24C284.09,120.2,284.66,98,297.35,82.05,307.94,68.71,332.11,58,356.8,73.24c.14-.12.38-.24.39-.38.41-4.67.4-4.67,5.22-4.67,3.56,0,7.12.09,10.68,0,2.06-.07,2.86.55,2.86,2.75-.07,26,0,52-.11,78,0,.9-1,2.55-1.51,2.57C368.77,151.7,363.2,151.62,357.46,151.62Zm-25.88-16.25a25.57,25.57,0,1,0,.08-51.13,25.57,25.57,0,1,0-.08,51.13Z"></path><path class="cls-1" d="M461,116.73c3.66,10.43,10.32,16.5,20.34,18.26s18.53-1.58,24.75-9.69c1.81-2.36,3-2.37,5.38-1.09,4.25,2.32,8.69,4.29,13.29,6.51-5.51,9.86-13.21,16.61-23.37,20.44-24.1,9.1-51-4.35-58.08-28.93A44.24,44.24,0,1,1,530,112c-.23,4.72-.23,4.72-5.09,4.72H461Zm1.5-16.64h46.72c-3.26-9.49-13.73-16.2-24.37-15.84C474.94,84.58,464.82,91.67,462.52,100.09Z"></path><path class="cls-1" d="M436.59,136.33c0,4.24.08,8.47-.08,12.69,0,.64-1,1.48-1.72,1.81A34.32,34.32,0,0,1,408.11,152c-7.64-2.81-11.31-9.14-11.78-17-.46-7.6-.35-15.23-.41-22.84-.05-7.83-.07-15.65,0-23.47,0-2.12-.69-2.91-2.81-2.8-2.5.13-5,0-7.87,0,0-5.63-.06-10.79.09-15.94,0-.59,1.15-1.57,1.86-1.65a34.38,34.38,0,0,1,6.09-.07c2,.11,2.68-.66,2.64-2.64-.1-4.57.06-9.14-.07-13.71-.06-2.27.77-3,3-3q6.4.2,12.81,0c2.23-.07,3.08.68,3,3-.13,4.56,0,9.14-.07,13.71,0,2,.62,2.7,2.63,2.66,5.49-.1,11,.07,16.47-.07,2.34-.06,3,.85,2.95,3q-.17,5.94,0,11.89c.06,2.09-.67,2.89-2.81,2.85-5.39-.11-10.78,0-16.16-.07-2.17,0-3.09.53-3.07,2.88.09,13.11-.05,26.21.07,39.31.07,6.74,5,10.81,11.71,10C429.62,137.63,432.79,137,436.59,136.33Z"></path><path class="cls-1" d="M78.51,57.32c13,0,26,.13,39,0,2.84,0,3.64.87,3.61,3.64q-.19,17.66,0,35.32c0,2.83-.93,3.66-3.69,3.64-11.89-.12-23.78-.1-35.66,0-2.56,0-3.31-.92-3.29-3.38.1-13.1.07-26.19.09-39.29Z"></path><path class="cls-1" d="M584.07,114.43c0,11.38-.06,22.76,0,34.14,0,2.41-.77,3.21-3.13,3.14-4.68-.13-9.36-.09-14,0-2,0-2.93-.41-2.92-2.69q.12-34.75,0-69.5c0-2.09.63-2.89,2.78-2.83,4.78.11,9.56.13,14.34,0,2.31-.07,3,.82,2.94,3C584,91.26,584.08,102.85,584.07,114.43Z"></path><path class="cls-1" d="M544.64,151.67c-2.44,0-4.88-.11-7.31,0-2.16.13-2.81-.79-2.77-2.84.09-4.76.07-9.53,0-14.29,0-2,.57-2.93,2.77-2.88,4.87.13,9.74.08,14.61,0,1.71,0,2.65.43,2.62,2.38-.08,5.06-.07,10.13,0,15.2,0,1.69-.6,2.41-2.3,2.36-2.53-.06-5.07,0-7.6,0Z"></path><path class="cls-1" d="M564.11,49c6.35,0,12.41,0,18.46.08.51,0,1.4,1.17,1.41,1.81.12,5.28.16,10.56,0,15.83a3,3,0,0,1-2.11,2.05c-5.18.19-10.37.17-15.55,0-.74,0-2.08-1.11-2.1-1.73C564,61.19,564.11,55.31,564.11,49Z"></path><rect class="cls-2" width="800" height="205"></rect></g></g></svg>