<svg xmlns="http://www.w3.org/2000/svg" viewBox="0 0 800 205"><defs><style>.cls-1{fill:#fff;}.cls-2{fill:none;}</style></defs><g id="Layer_2" data-name="Layer 2"><g id="Layer_1-2" data-name="Layer 1"><path class="cls-1" d="M75,33.4c12,2,23.39,5.35,33.54,12.36,23.38,16.16,35.09,45.84,28.59,73a69.73,69.73,0,0,1-59.28,52.63C40.48,176.07,5.21,148.81.55,111.63A69.23,69.23,0,0,1,60.87,34.18a20.19,20.19,0,0,0,2.91-.78ZM67.86,99.5c.08,11.93-8,20.39-17.12,20.21-10.09-.2-17.43-7.5-16.51-17.74.39-4.37,3-8.69,5.25-12.71s2.68-7.62-.09-11.29c-2.47-3.27-6-3.77-9.64-2.57-6.23,2-7.53,9.71-2.89,16.16,5.69,7.89,5.33,15.75-1.05,23-3.43,3.92-3.62,8.69-.5,12.27,3,3.38,7.71,3.73,12,.87,11.19-7.47,15.75-7.48,26.65-.08,4.25,2.89,8.84,2.61,12-.71,3.51-3.68,3.52-8.11.25-12.33a27.47,27.47,0,0,1-4.3-6.75C69.32,101,71.4,95,76,89.59A8.71,8.71,0,0,0,77,79.21C75.12,75.66,71.84,74.54,68,75c-7.16.78-9.89,8.75-5.47,15.21C64.92,93.69,66.78,97.58,67.86,99.5Zm37.86,2.37c-2.51,4.83-4.54,9.16-7,13.26-2.58,4.39-2.06,9.75,1.62,12.79,3.19,2.63,8.37,2.35,11.67-.63a8.66,8.66,0,0,0,.76-12c-6.92-8.68-7.25-16.91,0-25.62A8.88,8.88,0,0,0,99.22,78.23c-3.24,3.54-3.15,7.65-.24,12C101.33,93.77,103.26,97.59,105.72,101.87Zm-17.67,9.27a8.88,8.88,0,0,0,8.62-9.32,8.56,8.56,0,0,0-9.2-8.57,8.72,8.72,0,0,0-8.71,9.13A9.22,9.22,0,0,0,88.05,111.14Z"></path><path class="cls-1" d="M592.65,117.93V50.84h25.18c.14,1.81.41,3.6.41,5.39,0,30.58-.07,61.17.11,91.75,0,4.7-1.07,6.65-6.18,6.36-7.45-.42-14.95-.27-22.42,0-3.48.11-5.44-1-7.19-4.11-10.74-19-21.7-37.83-32.6-56.71a11.42,11.42,0,0,0-3.48-4v64.67c-8.17,0-15.75.08-23.32-.12-.83,0-2-1.52-2.33-2.56a12.75,12.75,0,0,1-.17-4V57.25c0-6.78,0-6.78,7-6.78,6.79,0,13.6.27,20.38-.1,4.31-.24,6.65,1.18,8.71,5C567.35,75,578.23,94.49,589,114c.8,1.46,1.67,2.88,2.51,4.31Z"></path><path class="cls-1" d="M288.17,154V50.74c1.89-.09,3.68-.26,5.47-.26,16.82,0,33.63-.1,50.44.05A66,66,0,0,1,356.68,52c19.52,4,22.83,23.23,16.23,35.94-2.38,4.58-8.16,7.4-11.43,10.19,3.77,3,9.6,5.79,12.86,10.42,13.23,18.75,1.44,43.36-22.46,45.14C331,155.19,309.85,154,288.17,154Zm46.12-19.25v-.06c5.09,0,10.19.18,15.27,0,5.84-.26,9.39-4,9.76-9.63.47-7.24-3.66-12-11.65-12.29-9.49-.39-19-.1-28.51-.25-3,0-3.81,1.37-3.76,4,.09,4.72.13,9.45,0,14.18-.09,3,1,4.24,4.13,4.11C324.44,134.57,329.37,134.71,334.29,134.71Zm-1.75-44.46V90.1c4.74,0,9.48.05,14.22,0,4-.06,6.62-2.13,8.28-5.64,3.9-8.23-1.37-16-11.42-16.36-8.11-.28-16.24,0-24.36-.12-2.89,0-3.92,1.08-3.86,3.85q.17,7.32,0,14.64c-.06,2.83,1.15,3.9,3.94,3.83C323.74,90.16,328.14,90.25,332.54,90.25Z"></path><path class="cls-1" d="M731.16,51.2,680,102l50.87,50.93-.56,1.35c-7.88,0-15.83-.65-23.62.16-9.52,1-16.3-2.09-22.42-9.36-6.58-7.82-14.38-14.61-22.74-22.95,0,9.94-.18,18.31.08,26.67.13,4.05-.87,5.78-5.31,5.56-6.92-.34-13.87-.09-21.24-.09V50.85h26.23v32c1.93-1.65,3.06-2.51,4.06-3.49,8.41-8.36,16.69-16.86,25.28-25a11.55,11.55,0,0,1,7-2.95C708.43,51,719.26,51.2,731.16,51.2Z"></path><path class="cls-1" d="M449.31,74.14q-9.6,31.17-19.19,62.35c-1.49,4.84-2.87,9.72-4.62,14.47-.48,1.29-2.08,3-3.22,3.09-8.28.26-16.58.14-25.64.14.67-2.41,1.07-4.16,1.65-5.85,10.78-31.09,21.64-62.15,32.31-93.28,1.17-3.4,2.64-4.81,6.41-4.69,9,.3,18-.06,27,.24,1.67,0,4.26,1.58,4.76,3,11.57,32.6,22.9,65.29,34.26,98a14.35,14.35,0,0,1,.23,2.6c-8.67,0-17.1.15-25.52-.17-1.13,0-2.69-2.25-3.16-3.74-7.54-23.62-14.93-47.3-22.36-71-.54-1.73-1.12-3.44-1.67-5.16Z"></path><path class="cls-1" d="M198.34,154.21V50.53c8.18,0,16.25-.14,24.31.21.85,0,2.24,2.93,2.26,4.51.16,18.24.1,36.48.1,54.71v22.81h12.66c9.68,0,19.36.08,29,0,3.12,0,4.75.75,4.58,4.23-.21,4.55.16,9.14-.2,13.67-.1,1.26-1.87,3.42-2.89,3.42C245.13,154.25,222.06,154.21,198.34,154.21Z"></path><rect class="cls-2" width="800" height="205"></rect></g></g></svg>