<svg xmlns="http://www.w3.org/2000/svg" viewBox="0 0 800 205"><defs><style>.cls-1{fill:none;}.cls-2{fill:#fff;}</style></defs><g id="Layer_2" data-name="Layer 2"><g id="Layer_1-2" data-name="Layer 1"><rect class="cls-1" width="800" height="205"></rect><path class="cls-2" d="M595.81,103.13c-3.78-2.52-8-4.2-11.76-6.3a36.8,36.8,0,0,1-7.55-4.62c-3.78-2.94-2.94-9.23.84-11.75,5.45-3.78,14.69-1.68,15.95,5.88a.41.41,0,0,0,.42.42h8.4c.42,0,.42,0,.42-.42-.42-5-2.52-9.66-6.3-12.18A20.07,20.07,0,0,0,584.47,70c-22.25,0-24.35,23.51-12.17,30.65,1.26.84,13,6.72,17.21,9.24a8.56,8.56,0,0,1,3.78,10.91,10.53,10.53,0,0,1-10.08,5.46c-4.61-.42-8.39-2.94-9.65-6.72a6.2,6.2,0,0,1-.42-2.51.41.41,0,0,0-.42-.42h-9.24a.41.41,0,0,0-.42.42c0,6.71,1.68,10.07,6.3,13.43A20.9,20.9,0,0,0,582.79,135c12.6,0,18.9-7.14,20.16-14.28S602.11,107.33,595.81,103.13Z"></path><path class="cls-2" d="M200.3,71.22h-8.82a.41.41,0,0,0-.42.42l-7.55,24.77c0,.42-.42.42-.84,0l-7.56-24.77a.41.41,0,0,0-.42-.42h-13a.41.41,0,0,0-.42.42v63a.41.41,0,0,0,.42.42h9.24a.41.41,0,0,0,.42-.42V86.34c0-.42.42-.42.84,0l7.56,24.77.42,1.68a.41.41,0,0,0,.42.42h7.13a.41.41,0,0,0,.42-.42l.42-1.68,7.56-24.77c0-.42.84-.42.84,0V134.2a.41.41,0,0,0,.42.42h9.24a.41.41,0,0,0,.42-.42v-63a.41.41,0,0,0-.42-.42h-6.3Z"></path><path class="cls-2" d="M456.42,71.22h0l-8,24.77c0,.42-.42.42-.84,0L440,71.22a.41.41,0,0,0-.42-.42H426.19a.41.41,0,0,0-.42.42v63a.41.41,0,0,0,.42.42h9.23a.41.41,0,0,0,.42-.42V86.34c0-.42.42-.42.84,0l7.56,24.77.42,1.68a.41.41,0,0,0,.42.42h7.14a.41.41,0,0,0,.42-.42l.42-1.68,7.55-24.77c0-.42.84-.42.84,0V134.2a.41.41,0,0,0,.42.42h9.24a.41.41,0,0,0,.42-.42v-63a.41.41,0,0,0-.42-.42H456.42Z"></path><path class="cls-2" d="M338.85,71.22H296a.41.41,0,0,0-.42.42v8A.41.41,0,0,0,296,80h16.79v54.58a.41.41,0,0,0,.42.42h9.24a.41.41,0,0,0,.42-.42V80h16.79a.41.41,0,0,0,.42-.42l-1.26-8.4Z"></path><path class="cls-2" d="M392.6,134.62H401a.41.41,0,0,0,.42-.42l-17.21-63a.41.41,0,0,0-.42-.42H371.6a.41.41,0,0,0-.42.42L354,134.2c0,.42,0,.42.42.42h8.4a.41.41,0,0,0,.42-.42l5-18.47a.41.41,0,0,1,.42-.42h18.47a.41.41,0,0,1,.42.42l5,18.89Zm-21.84-27.71,6.72-24.35c0-.42.42-.42.84,0L385,106.91c0,.42,0,.42-.42.42H371.18A.41.41,0,0,1,370.76,106.91Z"></path><path class="cls-2" d="M533.67,134.62h8.4a.41.41,0,0,0,.42-.42l-17.22-63a.41.41,0,0,0-.42-.42H512.68a.41.41,0,0,0-.42.42L495,134.2c0,.42,0,.42.42.42h8.4a.41.41,0,0,0,.42-.42l5-18.47a.41.41,0,0,1,.42-.42h18.47a.41.41,0,0,1,.42.42l5,18.89Zm-21.41-27.71L519,82.56c0-.42.42-.42.84,0l6.71,24.35c0,.42,0,.42-.42.42H512.68A.41.41,0,0,1,512.26,106.91Z"></path><path class="cls-2" d="M242.71,125.38V106.07a.41.41,0,0,1,.42-.42h24.35a.41.41,0,0,0,.42-.42v-8a.41.41,0,0,0-.42-.42H243.13a.41.41,0,0,1-.42-.42V79.62a.41.41,0,0,1,.42-.42h27.71a.41.41,0,0,0,.42-.42V71.64a.41.41,0,0,0-.42-.42H233.47a.41.41,0,0,0-.42.42v62.14a.41.41,0,0,0,.42.42h38.21a.41.41,0,0,0,.42-.42v-8.4a.41.41,0,0,0-.42-.42l-29,.42Z"></path><path class="cls-2" d="M678.94,134.2l-31.49-32.33v-.42L676,72.06c.42-.42,0-.42-.42-.42H663.41L639.48,96.41c-.42.42-.42,0-.42-.42V71.64a.41.41,0,0,0-.42-.42H629.4a.41.41,0,0,0-.42.42v63a.41.41,0,0,0,.42.42h9.24a.41.41,0,0,0,.42-.42V106.91a.41.41,0,0,1,.42-.42l27.29,28.13h12.17S679.36,134.2,678.94,134.2Z"></path><path class="cls-2" d="M61.13,171.2c-.83-.6-1.52-1.08-2.17-1.59Q30.69,147.45,2.39,125.36a5.28,5.28,0,0,1-2.24-5.88C3.35,101.34,6.38,83.17,9.48,65,11.11,55.48,12.82,46,14.37,36.4A2.42,2.42,0,0,1,16.87,34l.56-.05c4.29-.37,4.29-.37,7,3.07C33.64,49,42.93,60.86,52.12,72.83a5.12,5.12,0,0,0,4.71,2.27q4.34-.19,8.67,0A4.89,4.89,0,0,0,70,72.91Q83.78,55,97.72,37.15c.9-1.15,1.85-2.8,3-3a10.07,10.07,0,0,1,6.71.62q1.44,8.31,2.89,16.71,3.5,20.49,7,41c1.58,9.27,3.07,18.55,4.82,27.78.44,2.33-.32,3.51-2,4.85q-24.81,19.3-49.52,38.74ZM103,51.55l-.69-.1c-.31.85-.65,1.68-.93,2.54L84.6,105.72Q77,129.2,69.4,152.67a4.16,4.16,0,0,0-.34,3.09c1-.75,1.84-1.32,2.63-1.93,13.63-10.67,27.23-21.39,40.92-32a4.21,4.21,0,0,0,1.76-4.75c-1.12-5.93-2.11-11.9-3.12-17.85Q107.48,77.11,103.74,55C103.55,53.83,103.25,52.69,103,51.55ZM53.08,155.68l.55-.35Q48,138,42.42,120.67C38.67,109.08,35,97.48,31.16,85.9S23.82,62.83,19.6,51.43a4.15,4.15,0,0,0-.88,1.81q-1.42,8.11-2.79,16.23c-2.7,16-5.36,31.92-8.17,47.85a4,4,0,0,0,1.74,4.46q20.73,16.13,41.37,32.36C51.58,154.69,52.34,155.17,53.08,155.68Zm7.57-1.91.68,0c.49-1.34,1-2.67,1.47-4,6.08-18.73,12.12-37.48,18.27-56.19.62-1.89.4-3.08-1.17-4.29-2.43-1.87-4.75-3.89-7.08-5.89a4.3,4.3,0,0,0-3-1.19c-5.86,0-11.73,0-17.59,0a3.12,3.12,0,0,0-1.84.42C47,85.4,43.67,88.2,40.3,91ZM28.84,55.46c1.58,4.95,3,9.53,4.5,14.05S36,78.63,38.08,83.28c2.1-1.76,3.87-3.23,5.62-4.73.7-.6,1.34-1.25,2-1.85C44.25,73.9,30.91,56.92,28.84,55.46ZM84,82.94c1.5-2.3,8.77-25,8.68-27.56-5.69,7.17-11,14.1-16.49,21.18,2.35,2,4.38,3.78,6.44,5.51A10.24,10.24,0,0,0,84,82.94Z"></path></g></g></svg>