<svg xmlns="http://www.w3.org/2000/svg" viewBox="0 0 800 205"><defs><style>.cls-1{fill:#fff;}.cls-2{fill:none;}</style></defs><g id="Layer_2" data-name="Layer 2"><g id="Layer_1-2" data-name="Layer 1"><path class="cls-1" d="M43,18.8c7.46,0,14.93-.26,22.36.16A9.88,9.88,0,0,1,72,22.28C78.63,31,84.75,40.19,91.31,49c2,2.71,1.61,4.56-.21,7.06C82.63,67.76,74.31,79.54,65.94,91.29c-5.51,7.76-5.59,14.76,0,22.63,8.23,11.67,16.5,23.31,24.92,34.85,2,2.8,2.34,4.92.15,7.88C84.5,165.35,78.47,174.4,71.91,183a9.5,9.5,0,0,1-6.48,3.38c-14.46.31-28.93.25-43.4.16C9.63,186.51.13,177.27.09,164.86q-.18-62.22,0-124.44c0-12.6,9.36-21.55,21.9-21.63,7,0,14,0,21,0Z"></path><path class="cls-1" d="M87.58,18.22h15.7c14.77,0,29.54-.08,44.3,0a20.27,20.27,0,0,1,20.36,20.07q.12,64.46,0,128.91c0,10.68-9.12,19.52-19.8,19.56-19.82.06-39.64,0-60.11,0,.82-1.41,1.3-2.41,1.93-3.3q24.57-34.55,49.15-69.09c6.27-8.83,6.24-14.85,0-23.62l-48.44-68C89.8,21.61,89,20.37,87.58,18.22Z"></path><path class="cls-1" d="M284.54,104c-.36-.22.13.11.64.39,13.85,7.45,18.95,17.21,16.1,30.8s-13.51,23.13-28.22,23.68c-19.8.74-39.65.56-59.47.81-3.3,0-4.41-1.56-4.41-4.68q.09-48.18,0-96.35c0-3.22,1.18-4.64,4.42-4.6,19.08.24,38.2-.31,57.22.84C289.34,56,301.2,73.15,295,89,292.89,94.38,288.26,98.81,284.54,104Zm-35.31,37,0,.29c6.1-.33,12.27-.19,18.28-1.1,9.82-1.47,14.31-13.42,7.51-20.47-2.61-2.71-7.16-4.56-11-4.91-9.33-.83-18.77-.68-28.16-.58-1.13,0-3.14,2.07-3.2,3.25-.31,6.68-.33,13.39,0,20.07.06,1.2,2.23,3.16,3.57,3.29C240.55,141.23,244.91,141,249.23,141Zm-.42-68.77v.25c-4.31,0-8.64-.2-12.93.13-1.17.09-3.13,1.73-3.18,2.73-.3,5.92-.22,11.85-.06,17.78,0,.83,1.17,2.36,1.77,2.35,10.52-.23,21.1-.12,31.55-1.25,5.64-.6,8.2-5.43,7.95-11.19-.24-5.37-3.24-9-9.1-9.8C259.52,72.48,254.14,72.5,248.81,72.2Z"></path><path class="cls-1" d="M338.7,118.89,372,71.48c3.33-4.75,6.57-9.58,10.09-14.18a6.61,6.61,0,0,1,4.23-2.57c7.73-.25,15.47-.11,24-.11-.85,1.54-1.35,2.66-2,3.65-9.78,14.21-19.51,28.45-29.45,42.55-1.78,2.52-1.62,4.2,0,6.64q15.19,22.85,30.09,45.89a18.33,18.33,0,0,1,1.42,4,33.93,33.93,0,0,1-4.41,1.45c-13.84,2.56-23.75-1.47-29.35-15.44-2.87-7.19-8.12-13.43-12.71-20.74-1.26,1.55-2.28,2.69-3.17,3.91-6.87,9.53-13.81,19-20.52,28.66-2,2.88-4.23,4.14-7.76,3.88a113,113,0,0,0-12.07,0c-3.53.11-5-1.09-5-4.91q.19-47.71,0-95.42c0-3.16,1.14-4.24,4.18-4.12a64.07,64.07,0,0,0,11.17-.07c6-.8,7.11,1.85,7,7.27-.33,16.94-.12,33.89-.11,50.83v6.08Z"></path><path class="cls-1" d="M446.47,73.14c0,6.61-.16,13,.19,19.33,0,.86,2.68,2.23,4.13,2.24,14.76.17,29.53.24,44.3,0,4.52-.07,6.46,1.07,6.31,6-.46,15,2,12.68-12.76,12.8q-18.79.17-37.59,0c-3.31,0-4.87.62-4.68,4.38.3,6.23.29,12.5,0,18.73-.17,3.72,1.37,4.45,4.69,4.43,16.86-.13,33.72.06,50.58-.13,4.42-.06,6,1.28,6,5.84-.14,13,0,13-13,13-21.63,0-43.26-.11-64.89.08-4.69,0-6.56-1.08-6.53-6.23q.34-46.62,0-93.25c0-5.24,1.79-6.54,6.74-6.5,23.87.21,47.74.17,71.61,0,4.31,0,6.15,1.12,6.1,5.79-.14,12.7,0,12.81-12.5,13-14.76.19-29.53.16-44.29.25C449.52,72.85,448.21,73,446.47,73.14Z"></path><path class="cls-1" d="M565.29,87.19c6.33-9.87,12.46-19.16,18.28-28.64,1.88-3.06,4.06-4.23,7.61-4.1,6.52.25,13.05.08,20.63.08a46.1,46.1,0,0,1-2.53,5.3C600.15,73.59,591.11,87.41,581.7,101c-2.4,3.44-2.12,5.63.2,8.87,10.45,14.65,20.63,29.49,30.86,44.3a20,20,0,0,1,1.62,3.89c-1.35.38-2.69,1.08-4,1.07-7.13,0-15.39,2-21.09-1-5.5-2.82-8.43-10.71-12.38-16.44s-7.76-11.53-12-17.87c-6.46,9.6-12.94,18.48-18.56,27.86-3.47,5.8-7.49,8.56-14.36,7.59-4.09-.58-8.34,0-12.51-.16a19.22,19.22,0,0,1-4-1,19.18,19.18,0,0,1,1.56-4c10.37-15.25,20.73-30.51,31.31-45.62,2-2.87,2.19-4.83.12-7.79-9.51-13.68-18.77-27.53-28-41.36A16.23,16.23,0,0,1,519,55.38a19.14,19.14,0,0,1,3.75-.74c6.85,0,14.83-2,20.23.77s8.19,10.48,12,16.1C558.38,76.51,561.63,81.62,565.29,87.19Z"></path><path class="cls-1" d="M103.56,75.64c6.06,8.51,11.67,16.15,16.94,24,.89,1.33,1.16,4.16.34,5.39-5.38,8.1-11.15,16-17.27,24.56C97.47,121,91.71,113.12,86.33,105c-.81-1.23-.54-4.06.36-5.4C92,91.73,97.56,84.07,103.56,75.64Z"></path><rect class="cls-2" width="800" height="205"></rect></g></g></svg>