<svg xmlns="http://www.w3.org/2000/svg" viewBox="0 0 800 205"><defs><style>.cls-1{fill:#fff;}.cls-2{fill:none;}</style></defs><g id="Layer_2" data-name="Layer 2"><g id="Layer_1-2" data-name="Layer 1"><path class="cls-1" d="M175.91,100.43c0,11.7,0,23.41,0,35.12a3.44,3.44,0,0,1-2,3.46q-42,24.12-83.92,48.37a3.49,3.49,0,0,1-4,.07Q44,163.14,1.9,139a3.32,3.32,0,0,1-1.9-3.3q.06-35.45,0-70.9a3.32,3.32,0,0,1,1.9-3.29Q44,37.28,86,13a3.46,3.46,0,0,1,4,0Q131.95,37.27,174,61.4a3.46,3.46,0,0,1,2,3.46C175.88,76.72,175.91,88.57,175.91,100.43ZM17.63,96.75v2.89c0,7.83.11,15.66-.07,23.49-.06,2.56.86,3.89,3,5.12q32.51,18.58,64.88,37.39a4.27,4.27,0,0,0,5,.05q32.77-19,65.62-37.89c.71-.4,1.37-.9,2.22-1.46-.59-.45-.86-.7-1.16-.88q-26-15-52-29.93c-1.2-.69-1.81-.27-2.56.64-4.56,5.53-9.17,11-13.76,16.54a10.21,10.21,0,0,0-.82,1.4l28.43,16.39a7,7,0,0,1-.68.77c-5.59,3.62-11.15,7.29-16.82,10.79a3.49,3.49,0,0,1-2.92-.23q-30-17.18-60-34.48Zm0-23.39a10.76,10.76,0,0,0,1.17,1q25,14.41,50.06,28.83c1.14.66,1.81.38,2.58-.57,3.67-4.47,7.4-8.89,11.1-13.33,1.2-1.44,2.38-2.88,3.73-4.51L55.94,67.22c1-.63,1.54-1,2.15-1.42C62.9,62.87,67.79,60,72.5,57c1.94-1.27,3.37-1.16,5.32,0q38.93,22.41,77.94,44.68c.7.4,1.46.71,2.45,1.17,0-1.14.11-1.86.11-2.58,0-8.05,0-16.1,0-24.15a3.94,3.94,0,0,0-2.27-4q-33-18.9-65.84-38a4,4,0,0,0-4.6,0Q59.25,49.42,32.77,64.62C27.84,67.46,22.91,70.32,17.66,73.36Z"></path><path class="cls-1" d="M517.66,97.42c2.14,1.08,3.94,1.83,5.58,2.86,7.72,4.85,10.77,12.09,9.93,20.9s-4.71,16.23-13.3,19.68a46.29,46.29,0,0,1-15.1,3.25c-11.68.48-23.39.14-35.08.24-2.23,0-2.86-.79-2.86-2.92q.09-41.18,0-82.34c0-2.17.69-2.91,2.88-2.89,11.14.09,22.28-.12,33.42.12,7.88.17,15.39,1.87,20.72,8.42,8.49,10.43,6.45,23.84-4.66,31.45C518.75,96.49,518.36,96.86,517.66,97.42Zm-39,21.31c0,4.17.06,8.34,0,12.51,0,1.81.67,2.44,2.45,2.42,7.88-.08,15.77.06,23.65-.14,4.3-.11,8.57-.9,11.87-4,4.58-4.36,5.42-9.82,3.73-15.62-1.81-6.21-6.65-9.17-12.72-9.53-9-.54-18-.45-27-.66-1.65,0-2,.85-2,2.27C478.67,110.2,478.65,114.47,478.64,118.73ZM491.4,93v.25c5-.28,10-.33,15-.89,7-.78,11.21-5.68,11.12-12.32-.09-6.92-4.15-12-11-12.42-8.6-.59-17.25-.53-25.87-.59a2.75,2.75,0,0,0-1.91,1.9c-.14,7.32-.07,14.65-.11,22,0,1.57.67,2.13,2.18,2.11C484.34,92.94,487.87,93,491.4,93Z"></path><path class="cls-1" d="M293.43,100.24c-.19-10.06,1.7-19.66,7.43-28.07,9.53-14,23.34-19.21,39.67-17.27C361.87,57.44,376,73.3,377.14,95c.41,7.84-.1,15.54-2.63,23.07-7.42,22-27.91,29.08-44.75,27.09-22-2.6-35.05-20.05-36.32-40.43C293.35,103.21,293.43,101.72,293.43,100.24Zm11.41.44c.76,4.49,1.12,8.87,2.27,13a28.42,28.42,0,0,0,26.52,21c13.31.57,24.56-6.4,28.86-18.48a46,46,0,0,0-.73-34c-4.67-11.2-15.7-17.72-28.15-17-12.71.75-22.94,8.41-26.16,20.17C306.09,90.4,305.67,95.63,304.84,100.68Z"></path><path class="cls-1" d="M209.17,100.29c0-13.54.06-27.09,0-40.64,0-2.68.82-3.5,3.49-3.47,8.32.08,8.32,0,8.32,8.33s.07,16.52,0,24.77c0,2.42.73,3.22,3.19,3.2q19.5-.17,39,0c2.47,0,3.2-.76,3.17-3.18-.11-9.93,0-19.86-.09-29.79,0-2.53.74-3.56,3.32-3.31a26.72,26.72,0,0,0,5.29,0c2.68-.28,3.48.93,3.24,3.38a31,31,0,0,0,0,3.34v77.66c0,3.7,0,3.7-3.67,3.72-1.76,0-3.54-.12-5.29,0-2.27.18-2.86-.83-2.85-2.93.06-11.51,0-23,0-34.52,0-3.76,0-3.77-3.88-3.77q-18.66,0-37.34,0c-4.05,0-4.06,0-4.06,4.19,0,11.23-.05,22.45,0,33.68,0,2.46-.64,3.67-3.29,3.34a33.82,33.82,0,0,0-3.9,0c-4.61,0-4.61,0-4.61-4.48Q209.16,120.05,209.17,100.29Z"></path><path class="cls-1" d="M415,105.46c0-11.78-.08-23.56.05-35.34,0-2.61-.86-3.3-3.35-3.26-7.52.13-15,0-22.56.1-2.5,0-3.16-.83-3.16-3.22,0-7.51-.05-7.51,7.44-7.51,19.59,0,39.19.05,58.78,0,2.77,0,3.7.7,3.64,3.57-.16,7.16,0,7.16-7.24,7.16H431.06c-4.29,0-4.29,0-4.29,4.17q0,34.52,0,69c0,4.22,0,4.22-4.27,4.23-7.48,0-7.48,0-7.48-7.41Z"></path><path class="cls-1" d="M617.43,105.47v34.79c0,4,0,4-4.17,4a35.51,35.51,0,0,1-5.56-.11c-.75-.12-1.56-1.13-2-1.93a6.31,6.31,0,0,1-.08-2.47V71.34c0-4.43,0-4.43-4.31-4.43-7.24,0-14.48,0-21.72,0-2.09,0-2.95-.55-3-2.82-.1-7.89-.18-7.89,7.6-7.89h58.5c3.67,0,3.67,0,3.68,3.68,0,7,0,7-7.05,7-6.22,0-12.45.1-18.66,0-2.51-.06-3.38.68-3.35,3.28C617.5,81.91,617.43,93.69,617.43,105.47Z"></path><path class="cls-1" d="M551.18,100c0-13.45.06-26.9,0-40.34,0-2.65.76-3.53,3.47-3.5,8.34.1,8.35,0,8.35,8.32q0,38,0,76c0,3.82,0,3.83-3.85,3.86-1.67,0-3.35-.1-5,0-2.18.17-3-.7-2.93-2.87.1-5.1,0-10.2,0-15.3Z"></path><rect class="cls-2" width="800" height="205"></rect></g></g></svg>