<svg xmlns="http://www.w3.org/2000/svg" viewBox="0 0 800 205"><defs><style>.cls-1{fill:#fff;}.cls-2{fill:none;}</style></defs><g id="Layer_2" data-name="Layer 2"><g id="Layer_1-2" data-name="Layer 1"><path class="cls-1" d="M150.55,63.75c-1.63,53-23.32,92.27-68.47,117.69-8.41,4.74-5.43,4.68-14-.09-31-17.24-52.39-42.47-62.44-76.74C-.08,85.12-1.66,65.28,1.88,45.18c.22-1.28,1.7-3.09,2.8-3.26S7.76,43,8.36,44.17q14.06,27,27.77,54.23a3.77,3.77,0,0,0,3.95,2.38q36.12-.09,72.24,0a3.25,3.25,0,0,0,3.47-2.15q12.93-27.1,26-54.16c.8-1.68,1.82-3,3.85-2.74s2.78,1.66,3,3.63C149.23,52.09,150,58.81,150.55,63.75ZM75.23,174.5c12.12-22.65,23.9-44.69,35.82-67H40.89ZM7.52,56.78c-2,23.51,2,45.77,12.48,66.73,9.9,19.79,34.69,45.76,46.91,49.06Q37.14,114.55,7.52,56.78Zm136,1-59.39,115c20.68-12.65,36.67-29.38,47.12-51.15C141,101.36,144.72,79.93,143.54,57.77Z"></path><path class="cls-1" d="M428.84,110.34,448,133.07c-3.11,0-5.55.15-8-.08a4.47,4.47,0,0,1-2.43-1.67c-5.39-6.32-10.65-12.75-16.12-19a6.15,6.15,0,0,0-4-1.9c-7.63-.18-15.25-.09-23.2-.09v22.52H387.6V72.41c1,0,2-.16,3-.16q22.92,0,45.85,0c8.17,0,11.93,3.8,11.94,11.91,0,5.15.05,10.3,0,15.45-.08,6.61-4.2,10.67-10.78,10.73C434.92,110.36,432.27,110.34,428.84,110.34Zm-11-6.86c6.4,0,12.79,0,19.18,0,3.4,0,4.45-1,4.48-4.44,0-5.14,0-10.29,0-15.44,0-3.42-1.08-4.53-4.42-4.54q-19.17,0-38.36,0c-3.39,0-4.47,1.09-4.51,4.48-.06,5.14-.05,10.29,0,15.44,0,3.52,1.09,4.49,4.74,4.5C405.21,103.5,411.51,103.48,417.81,103.48Z"></path><path class="cls-1" d="M299.35,99.22h38.83V106H299.39v20.3h47.92c.37.48.47.54.48.63.8,6.2.79,6.2-5.33,6.2H292.65V72.3h55v6.51H299.35Z"></path><path class="cls-1" d="M252.74,72.26v6.65H204.31c-4.54,0-5.37.83-5.37,5.3q0,18.48,0,37c0,4.24.9,5.14,5.24,5.14q22.51,0,45,0h3.5v6.62c-.88.05-1.79.15-2.69.15q-23.22,0-46.45,0c-7.55,0-11.43-3.92-11.43-11.5q0-19,0-38.09c0-7.38,3.92-11.32,11.31-11.34q23.22,0,46.44,0C250.72,72.14,251.56,72.21,252.74,72.26Z"></path><path class="cls-1" d="M638.7,106.05c0,8,0,15.41,0,22.84,0,4.61.67,4.15-4.37,4.18-.66,0-1.31-.06-2.22-.1V72.16a31.59,31.59,0,0,1,5.24.1c.56.1,1.29,1.45,1.3,2.23.1,7.06.06,14.13.06,21.19v3.45c6.47,0,12.64.07,18.82-.08.81,0,1.73-1,2.37-1.79C666,90.06,672.2,82.9,678.1,75.52c2.06-2.56,4.19-3.94,7.48-3.41a33.31,33.31,0,0,0,4.22,0L664.34,102.6l25,29.88c-4.86,1.63-8.19.77-11.15-2.75-6.08-7.24-12.11-14.52-18.32-21.66a6.23,6.23,0,0,0-4-1.93C650.3,105.92,644.68,106.05,638.7,106.05Z"></path><path class="cls-1" d="M545.56,78.9H518.8v54h-6.86V79H485V72.13h56.68c4.16,0,4.17,0,4.1,4.17C545.73,77,545.64,77.79,545.56,78.9Z"></path><path class="cls-1" d="M75.14,27.14c-1.07.31-2.17.61-3.26.95L28.13,41.45c-.55.17-1.09.36-1.65.49-1.95.46-3.48-.13-4.08-2.09a3,3,0,0,1,2.1-4.07c3.18-1,6.37-2,9.56-3C46.82,28.92,59.57,25,72.36,21.18a10.31,10.31,0,0,1,5.51,0c15.8,4.7,31.56,9.56,47.34,14.37.54.16,1.1.3,1.63.51,1.84.75,2.77,2.09,2.22,4.06s-2.14,2.65-4,2.12c-4.22-1.19-8.42-2.48-12.61-3.76Q95,33.17,77.68,27.84C76.86,27.6,76,27.39,75.14,27.14Z"></path><path class="cls-1" d="M582.89,72.31h6.47V132.9h-6.47Z"></path><rect class="cls-2" width="800" height="205"></rect></g></g></svg>