<svg xmlns="http://www.w3.org/2000/svg" viewBox="0 0 800 205"><defs><style>.cls-1{fill:#fff;}.cls-2{fill:none;}</style></defs><g id="Layer_2" data-name="Layer 2"><g id="Layer_1-2" data-name="Layer 1"><path class="cls-1" d="M18.75,180.93V174.5c1.76,0,3.51,0,5.27,0,18.82-.22,37.67.06,56.47-.84,12.87-.62,25.09-4.22,34-14.65,1.31-1.54,2.41-3.27,3-4.07-5.71,3.21-11.6,8-18.31,10-14.2,4.27-29,3-44,3v-6.29c7,0,13.84.21,20.68-.06A165.82,165.82,0,0,0,95,159.92c7.41-1.17,13.1-5.56,17.67-11.57-9.66,7-20.77,7-31.88,7H.47c-.9-4.11-.9-4.15,3.66-4.16,22.2,0,44.41.11,66.62-.06a223.82,223.82,0,0,0,26.54-1.37c10.52-1.35,16-7.49,16.09-16.26.05-6.89-4.34-13-12.44-15.11a107.5,107.5,0,0,0-21.26-2.79c-9.63-.45-19.29-.15-28.94-.09-2.71,0-4.68-.35-3.12-4.68,16.68.53,33.67.56,50.56,1.9,5.34.42,10.41,4.32,14.81,6.27-5.71-8.17-14.53-13-25.52-13.28-17.6-.47-35.2-.51-52.8-.73-1.8,0-3.59,0-5.61,0V99.2c.44-.25.71-.53,1-.53,21.4.48,42.81.67,64.19,1.61,8.29.36,15.09,5.2,21.36,10.55a30.64,30.64,0,0,0-13.26-12.54c-9.38-4.78-19.54-6-29.83-6.17-9.94-.21-19.88-.05-30.19-.05v-6.9c15.21.52,30.22.3,45,1.86,6.68.7,12.15-1.91,14.74-6.47,3.49-6.14,3.49-14-1.23-18.32-3.34-3.09-7.74-6.34-12-6.87C77.06,53.89,65.1,53.79,53.2,53.18c-2.14-.11-4.3.13-6.42-.12-.74-.09-2-1.37-1.9-1.79.25-.9,1.26-2.29,1.92-2.27,15,.46,30,.77,44.87,1.89,3.76.28,7.31,3.28,11.18,5.13-6.11-7.8-14.22-11.51-23.72-11.89-13.3-.53-26.62-.55-39.93-.77-2,0-4,0-6.32,0V36.93c3.4,0,6.73,0,10.06,0,11.78.2,23.57.3,35.34.69a40.68,40.68,0,0,1,28.64,12.53c-1.57-4.53-6.15-9.3-12-12.61-9.76-5.54-20.54-6.84-31.46-7-13.32-.22-26.65-.05-40-.05h-5.2V24.37c1.49-.11,2.81-.29,4.13-.3,14.86,0,29.72-.2,44.57.05,11.76.21,23,2.69,33.33,8.76C124.1,46.83,125.07,77,116.33,94c-.63,1.22-1.31,2.4-2.12,3.88,7.39,6.17,12.52,13.79,14.59,23.24,6.47,29.57-8.93,52.79-39,57.87-9.44,1.6-19.18,1.7-28.79,1.9C47.08,181.15,33.16,180.93,18.75,180.93Z"></path><path class="cls-1" d="M472.44,62.56v90.53H459.38V78.85l-26.33,47.62c-4.44,8-8.85,16.07-13.32,24.08-2.34,4.18-7.66,4.29-10,.17q-18.57-33.24-37-66.53c-1-1.73-1.59-3.63-2.83-6.52v75.51H357.08V62.57c5.4,0,10.71-.15,16,.13,1.09.06,2.46,1.53,3.09,2.68q18.81,34.41,37.48,68.9c.27.48.59.93,1,1.61,6.91-12.43,13.62-24.55,20.37-36.64,6.18-11.09,12.48-22.11,18.55-33.26,1.42-2.61,3-3.72,6.07-3.5C463.75,62.78,467.87,62.56,472.44,62.56Z"></path><path class="cls-1" d="M177.29,153.46V52.92c16,.48,31.68.74,47.36,1.6,3.64.2,7.41,2,10.7,3.82,14.16,7.82,15.65,25.21,3.05,35.44-3,2.47-6.7,4.15-10.41,6.38,2.22.63,4.46,1.18,6.66,1.89,9.36,3,16.41,8.54,18,18.79,1.62,10.53-2.49,18.84-11.18,24.93a40.24,40.24,0,0,1-21.87,7.48c-12.54.45-25.11.18-37.67.21Zm14.58-47.68v38.05c9.53-.43,18.72-.46,27.81-1.39,6.91-.7,13-3.72,16.31-10.4,4.94-10-.38-21-12.32-23.3C213.41,106.77,202.78,106.72,191.87,105.78Zm-.09-8.73c8.4-.57,16.46-.86,24.43-1.82,2.89-.34,5.8-2,8.33-3.55,5.42-3.43,7.5-8.7,6.89-15-.65-6.52-4.8-10.55-10.81-11.44-9.41-1.41-19-1.77-28.84-2.61Z"></path><path class="cls-1" d="M577,82.05h14v12.6c1.76-2.58,2.76-4.21,3.93-5.7,6.4-8.16,18.21-11,28.2-7.73,3.58,1.2,7.77.59,12.31.83,0-5.23.11-9.92-.05-14.6-.08-2.42.72-3.56,3.18-4,3.57-.68,7.06-1.77,11.18-2.85V81.84h22V90.9H649.86v24.68c0,5.66-.07,11.33,0,17,.18,11.08,7.07,16,17.77,12.69,1.29-.39,2.52-1,3.78-1.46.23.36.49.58.5.8.44,9.73-.34,10.55-10.11,10.69-1.69,0-3.37,0-5.05,0-13.82-.11-21.2-7.46-21.3-21.39-.08-12.4,0-24.8,0-37.2,0-1.65,0-3.3,0-5.14-8.88-.43-17.36-1.55-25.74-1.07-10.81.62-18.46,11.15-18.56,24.19-.09,12.69,0,25.38,0,38.42H577Z"></path><path class="cls-1" d="M496.92,98.4c0-3.78-.19-7,.12-10.08a4.33,4.33,0,0,1,2.36-2.81,62.55,62.55,0,0,1,40.77-4c10.87,2.58,17.31,10.1,17.64,21.25.49,16.66.13,33.34.13,50.35H544.05c-.18-2.84-.35-5.65-.57-9.4-5.63,6.15-11.71,10.06-19.23,11.06-8.74,1.16-17.42,1.15-25.5-3.16a19.7,19.7,0,0,1-3-32.77c6.36-5.1,14-6.54,21.81-7.5,8.49-1,17-2,25.42-2.94,1.91-10.7-4.53-18.58-15.58-19.06a47,47,0,0,0-25.92,6.38C500.21,96.46,498.93,97.22,496.92,98.4Zm46.41,18.84c-11.1,2-21.91,3.6-32.6,5.83-5.09,1.07-7.37,5.19-7.6,10.26a10.28,10.28,0,0,0,6.68,10.53c9.16,3.89,18,2.9,26-3C543.59,135.19,544.49,127.06,543.33,117.24Z"></path><path class="cls-1" d="M344.51,143.81c1,10.38.09,11.37-10.17,11.49-20,.24-26.08-5.8-26.1-25.81q0-18.62-.11-37.21c0-.27-.21-.54-.47-1.16H293.81V81.89h14.44c0-5.2-.21-9.91.13-14.59a5.1,5.1,0,0,1,2.77-3.64c3.54-1.3,7.3-2,11.39-3.06V81.65h21.95v9.07H322.64v5.33c0,11.64,0,23.28,0,34.92,0,13.55,7.3,18.34,20.15,13.36C343.34,144.12,343.91,144,344.51,143.81Z"></path><path class="cls-1" d="M269.06,82.09h13.8v71h-13.8Z"></path><path class="cls-1" d="M276.32,63.38c-5.16,0-9-2.73-9.38-6.76-.31-3.31,2.75-6.95,6.5-7.73,5.42-1.14,10.56,1.18,11.81,5.32C286.72,59.13,282.63,63.34,276.32,63.38Z"></path><path class="cls-1" d="M24.78,62.37H48.13c10.56,0,21.12-.06,31.67.07,1.17,0,2.33,1.08,3.49,1.66-1.06.57-2.11,1.62-3.17,1.63q-26.4.15-52.8,0c-1.14,0-2.27-1-3.4-1.61Z"></path><path class="cls-1" d="M47.34,167.09H10.62v-4c11.8,0,23.51-.06,35.21.13.9,0,1.77,1.82,2.66,2.8Z"></path><path class="cls-1" d="M61.29,128.53c-6.43,0-12.86.08-19.29-.08-1,0-2-1.12-3-1.73,1-.61,2-1.75,2.93-1.76q19.29-.18,38.59,0c.94,0,1.86,1.25,2.79,1.92-.91.55-1.8,1.56-2.72,1.58C74.16,128.6,67.72,128.53,61.29,128.53Z"></path><path class="cls-1" d="M9,74.32c1-.74,1.94-2.11,2.92-2.12,10.22-.16,20.44-.14,30.65,0,.83,0,1.64,1.21,2.46,1.86-.85.62-1.7,1.76-2.56,1.77-10.81.12-21.62.08-32.43.08Z"></path><path class="cls-1" d="M10.75,137c12.37,0,24.74,0,37.11.08.8,0,1.59,1.2,2.39,1.84-.73.55-1.46,1.57-2.2,1.57-11.79.1-23.57.13-35.36,0-.93,0-1.84-1.43-2.76-2.2C10.2,137.87,10.47,137.44,10.75,137Z"></path><path class="cls-1" d="M67.75,75.91c-3.82,0-7.65.1-11.46-.09-.89,0-1.73-1.13-2.6-1.74.81-.65,1.61-1.87,2.43-1.89q11.68-.21,23.37,0c.87,0,1.71,1.13,2.56,1.74-1,.66-1.87,1.84-2.85,1.9C75.39,76,71.56,75.91,67.75,75.91Z"></path><path class="cls-1" d="M70,140.47c-3.5,0-7,.09-10.49-.08-.74,0-1.43-1-2.14-1.61.73-.55,1.45-1.56,2.18-1.57,7.15-.12,14.29-.11,21.44,0,.64,0,1.27.91,1.9,1.4-.65.62-1.27,1.75-2,1.78C77.33,140.56,73.68,140.47,70,140.47Z"></path><path class="cls-1" d="M1.33,180.4v-5.54H10.1v5.54Z"></path><path class="cls-1" d="M19.58,49.81c5.41,0,9.67-.08,13.92.07.76,0,1.49,1,2.24,1.5-.48.49-1,1.38-1.45,1.39-4.28.1-8.55.09-12.82-.07C21,52.69,20.63,51.47,19.58,49.81Z"></path><path class="cls-1" d="M19.3,124.89c3.49,0,7-.09,10.47.09.72,0,1.38,1.1,2.07,1.69-.68.62-1.33,1.72-2.05,1.76a56.8,56.8,0,0,1-9.13,0c-.87-.09-1.62-1.52-2.43-2.33Z"></path><rect class="cls-2" width="800" height="205"></rect></g></g></svg>