<svg xmlns="http://www.w3.org/2000/svg" viewBox="0 0 800 205"><defs><style>.cls-1{fill:#fff;}.cls-2{fill:none;}</style></defs><g id="Layer_2" data-name="Layer 2"><g id="Layer_1-2" data-name="Layer 1"><g id="Artboard-Copy"><g id="black"><path id="Full-logo-_-black" data-name="Full-logo-/-black" class="cls-1" d="M108.52,114.81a6.64,6.64,0,0,1-6.78.46c-2.52-1.42-3.9-4.73-3.9-9.33V92.17c0-6.65-2.64-11.38-7-12.66-7.48-2.17-13.1,6.95-15.21,10.37l-13.19,21.3v-26c-.15-6-2.1-9.58-5.81-10.66-2.45-.71-6.12-.43-9.69,5L17.35,126.77a51.73,51.73,0,0,1-6-24.27c0-28.47,22.9-51.63,51.05-51.63S113.44,74,113.44,102.5c0,0,0,.09,0,.14a.66.66,0,0,0,0,.14c.26,5.51-1.53,9.9-4.93,12Zm16.26-12.31h0v-.28c-.16-34.68-28.08-62.83-62.39-62.83S0,67.7,0,102.5s28,63.11,62.39,63.11a61.82,61.82,0,0,0,42.42-16.83,5.78,5.78,0,0,0,.3-8.11,5.64,5.64,0,0,0-8-.31A50.59,50.59,0,0,1,24.41,137L51.05,94.32V114c0,9.44,3.67,12.49,6.75,13.38s7.8.29,12.74-7.72L85.2,96c.47-.76.9-1.42,1.3-2v12c0,8.82,3.54,15.88,9.73,19.36a17.9,17.9,0,0,0,18.29-.74C121.44,120.2,125.17,112.18,124.78,102.5Zm86.86-21.56a6.11,6.11,0,0,1,2.8,4.75,5.43,5.43,0,0,1-5.3,5.35,6.46,6.46,0,0,1-2-.4,20.29,20.29,0,0,0-11.89-4c-10.38,0-17.57,8.48-17.57,19s7.19,18.88,17.57,18.88a19.47,19.47,0,0,0,13.28-5.35,5.41,5.41,0,0,1,3.1-1,5,5,0,0,1,5,5.05,5.34,5.34,0,0,1-2.49,4.34,29.59,29.59,0,0,1-18.77,7.07,29.29,29.29,0,1,1,16.27-53.62Zm29.21,12.22c10.88,0,20.07,9.19,20.07,20.5s-9.19,20.9-20.07,20.9A21.13,21.13,0,0,1,220,113.66,20.79,20.79,0,0,1,240.85,93.16Zm-.1,31.3c4.79,0,8.88-4.54,8.88-10.7s-4.09-10-8.88-10c-5.19,0-9.49,3.74-9.49,10S235.56,124.46,240.75,124.46Zm27,3.84V99.42a5.71,5.71,0,0,1,5.59-5.76,5.79,5.79,0,0,1,5.7,5.76V128.3a5.79,5.79,0,0,1-5.7,5.75A5.7,5.7,0,0,1,267.76,128.3Zm-.89-45.54A6.62,6.62,0,0,1,273.35,76,6.73,6.73,0,0,1,280,82.76a6.62,6.62,0,0,1-6.69,6.56A6.51,6.51,0,0,1,266.87,82.76Zm33.8,29.89V128.3a5.79,5.79,0,0,1-5.7,5.75,5.7,5.7,0,0,1-5.59-5.75V98.11a4.46,4.46,0,0,1,4.4-4.45,4.38,4.38,0,0,1,4.29,4.45,16.69,16.69,0,0,1,12.38-5c11.28,0,16.28,8.48,16.28,18.07V128.3a5.79,5.79,0,0,1-5.7,5.75,5.7,5.7,0,0,1-5.59-5.75V112.65c0-5-.6-9.09-7.69-9.09-5,0-7.09,4.14-7.09,9.09Zm62.75,6a3.67,3.67,0,0,1-2.89-1.42L347.35,103V128.3a5.78,5.78,0,0,1-5.69,5.75,5.7,5.7,0,0,1-5.6-5.75V78.12a2.21,2.21,0,0,1,2.1-1.42,3.69,3.69,0,0,1,2.4,1.42l21,23.52a3,3,0,0,0,1.79,1.12,3,3,0,0,0,1.8-1.11l21-23.53a3.7,3.7,0,0,1,2.39-1.42,2.21,2.21,0,0,1,2.1,1.42V128.3a5.7,5.7,0,0,1-5.59,5.75,5.78,5.78,0,0,1-5.69-5.75V103l-13.18,14.23A3.6,3.6,0,0,1,363.42,118.61Zm54.27,5.85c5.1,0,9.39-4.54,9.39-10.7s-4.39-10.2-9.39-10.2-9,4.14-9,10.2S412.7,124.46,417.69,124.46Zm12,5.15-.21-1.31c-2.19,4.34-9.18,6.26-13.68,6.26-10.58,0-18.37-9.59-18.37-20.9s8-20.5,19-20.5a17.5,17.5,0,0,1,13.08,6.26l.2-1.31a4.38,4.38,0,0,1,4.3-4.45,4.46,4.46,0,0,1,4.39,4.45v31.5a4.46,4.46,0,0,1-4.4,4.44,4.37,4.37,0,0,1-4.29-4.44Zm40-26.05h-1.2c-7.09.41-8.49,4.44-8.49,9.09V128.3a5.78,5.78,0,0,1-5.69,5.75,5.7,5.7,0,0,1-5.59-5.75V98.11a4.45,4.45,0,0,1,4.39-4.45,4.38,4.38,0,0,1,4.3,4.45c4.19-3.94,7.59-4.75,11.08-5h1.1a5.2,5.2,0,0,1,.1,10.4Zm43.48,22.11a5.13,5.13,0,0,1,.8,2.73,5.88,5.88,0,0,1-5.59,5.65c-2,0-3.69-1.51-5-3.13l-13-15V128.3a5.78,5.78,0,0,1-5.69,5.75,5.7,5.7,0,0,1-5.6-5.75V82.46a5.71,5.71,0,0,1,5.6-5.76,5.79,5.79,0,0,1,5.69,5.76V111l13-14.34c1.3-1.51,2.89-3,4.89-3a5.69,5.69,0,0,1,5.39,5.56,4.91,4.91,0,0,1-.7,2.62l-10.28,11.21,10.48,12.62Zm14-15.31h16.27c0-4.82-3.82-7.22-8.14-7.22S527.19,105.64,527.19,110.36Zm22.86,6.93H527.19c0,6.77,6.49,7.78,9.38,7.78a19.9,19.9,0,0,0,7.39-1.42,5.53,5.53,0,0,1,2.9-.91,4.68,4.68,0,0,1,4.59,4.65,4.82,4.82,0,0,1-2.5,4c-3.49,2.52-8,3.13-12.28,3.13-11.38,0-20.87-6.16-20.87-20.4,0-11.2,5.79-21,19.28-21,10.88,0,19.16,7.07,19.36,19.69A4.45,4.45,0,0,1,550.05,117.29Zm31.41,17.27h-3.1c-8.59,0-13.58-3.74-13.58-17.17V103.56h-2.89a5.2,5.2,0,0,1,0-10.4h2.89V82.46a5.71,5.71,0,0,1,5.6-5.76,5.79,5.79,0,0,1,5.69,5.76v10.7h4.69a5.2,5.2,0,0,1,0,10.4h-4.69v11.61c0,7.68.4,9.29,3.79,9.29h1.6a5,5,0,0,1,5,5A5.1,5.1,0,0,1,581.46,134.56Zm54.67-53.62a6.12,6.12,0,0,1,2.79,4.75A5.42,5.42,0,0,1,633.63,91a6.34,6.34,0,0,1-2-.4,20.29,20.29,0,0,0-11.89-4c-10.38,0-17.57,8.48-17.57,19s7.19,18.88,17.57,18.88A19.49,19.49,0,0,0,633,119.11a5.39,5.39,0,0,1,3.1-1,5,5,0,0,1,5,5.05,5.33,5.33,0,0,1-2.5,4.34,29.57,29.57,0,0,1-18.77,7.07,29.29,29.29,0,1,1,16.28-53.62Zm28.61,43.52c5.09,0,9.38-4.54,9.38-10.7s-4.39-10.2-9.38-10.2-9,4.14-9,10.2,4,10.7,9,10.7Zm12,5.15-.2-1.31c-2.2,4.34-9.19,6.26-13.68,6.26-10.58,0-18.37-9.59-18.37-20.9s8-20.5,19-20.5a17.51,17.51,0,0,1,13.08,6.26l.2-1.31A4.37,4.37,0,0,1,681,93.66a4.46,4.46,0,0,1,4.4,4.45v31.5a4.46,4.46,0,0,1-4.4,4.44A4.37,4.37,0,0,1,676.72,129.61Zm39.69-5.15c5,0,9-4.75,9-10.7s-4-10.2-9-10.2-9.39,4-9.39,10.2S711.32,124.46,716.41,124.46ZM707,131.23v14.33a5.79,5.79,0,0,1-5.69,5.76,5.71,5.71,0,0,1-5.59-5.76V98.11a4.46,4.46,0,0,1,4.4-4.45c2.39,0,4.29,2,4.29,4.85a18,18,0,0,1,13.28-5.35c11,0,19,9.19,19,20.5s-7.79,20.9-18.37,20.9C715,134.56,710.12,133.55,707,131.23Z"></path></g></g><rect class="cls-2" width="800" height="205"></rect></g></g></svg>