<svg xmlns="http://www.w3.org/2000/svg" xmlns:xlink="http://www.w3.org/1999/xlink" viewBox="0 0 800 205"><defs><style>.cls-1{fill:none;}.cls-2{clip-path:url(#clip-path);}.cls-3{fill:#fff;}</style><clipPath id="clip-path"><rect class="cls-1" y="22.85" width="725.06" height="159.31"></rect></clipPath></defs><g id="Layer_2" data-name="Layer 2"><g id="Layer_1-2" data-name="Layer 1"><g class="cls-2"><path class="cls-3" d="M283.66,73.6A26.72,26.72,0,0,1,294.27,85a37.14,37.14,0,0,1,4.1,17.81c0,6.72-1.36,12.44-4.44,17.49a25.41,25.41,0,0,1-12,11.08,38.21,38.21,0,0,1-17.79,4,28.36,28.36,0,0,1-10.61-2,21.74,21.74,0,0,1-8.9-5.38v35H224.81V70.9h17.11l1.71,7.4c7.52-6,15.74-9.07,24.29-9.07A27.65,27.65,0,0,1,283.66,73.6Zm-11,41.67a15.34,15.34,0,0,0,5.13-12.1,17.68,17.68,0,0,0-4.79-12.44C270,87.38,265.87,86,261.42,86a18.88,18.88,0,0,0-9.92,2.35A15.67,15.67,0,0,0,245,95.1v15.13a14.24,14.24,0,0,0,5.47,7,17.64,17.64,0,0,0,9.58,2.69A18.32,18.32,0,0,0,272.71,115.27Z"></path><path class="cls-3" d="M310,85.36a31.71,31.71,0,0,1,12.66-11.43,41.3,41.3,0,0,1,18.47-4.37,37.3,37.3,0,0,1,18.48,4.37,31.45,31.45,0,0,1,12.32,11.76,34,34,0,0,1,0,33.61c-3.08,5-6.84,9.08-12.32,11.77a40.5,40.5,0,0,1-18.48,4.37,41.36,41.36,0,0,1-18.47-4A29.62,29.62,0,0,1,310,120a35.87,35.87,0,0,1-4.48-17.51A35.47,35.47,0,0,1,310,85.36Zm20.18,29.24c2.74,3.35,6.51,4.7,10.95,4.7a14.37,14.37,0,0,0,10.95-4.7c2.74-3,4.11-7.4,4.11-12.11q0-7.56-4.11-12.1a14.28,14.28,0,0,0-11.29-5,14.91,14.91,0,0,0-10.95,4.71,18.85,18.85,0,0,0-4.1,12.44A17.24,17.24,0,0,0,330.19,114.6Z"></path><path class="cls-3" d="M408.53,23.18V133.76H388.71V23.18Z"></path><path class="cls-3" d="M490,72.58l-40.38,90.75H430.45l15.08-32.6L416.78,72.59h22.59l16.42,36.3,16.43-36.3Z"></path><path class="cls-3" d="M566,72.58v61.18a26.43,26.43,0,0,1-5.14,15.75,34.16,34.16,0,0,1-13.68,11.09,44.1,44.1,0,0,1-18.82,4A51.87,51.87,0,0,1,515,162.92a61.85,61.85,0,0,1-9.23-4,63.43,63.43,0,0,1-8.56-6.38l11.64-13.46a33.08,33.08,0,0,0,8.55,6A24.51,24.51,0,0,0,528,147.51a21.61,21.61,0,0,0,12.66-3.71,12.07,12.07,0,0,0,5.13-10.42v-8.74a22.13,22.13,0,0,1-8.9,7.74,32.22,32.22,0,0,1-14.37,3A29.45,29.45,0,0,1,506.75,131a32.4,32.4,0,0,1-11.63-11.77,34,34,0,0,1-4.45-16.46A31.71,31.71,0,0,1,495.12,86a34,34,0,0,1,12-12.1,28.06,28.06,0,0,1,15.4-4.37,43,43,0,0,1,13.69,2,20.5,20.5,0,0,1,9.24,5.71l2-4.7Zm-20.19,37.64V95.1a14.55,14.55,0,0,0-6.5-7,21.53,21.53,0,0,0-10.61-2.7,18.15,18.15,0,0,0-12.32,4.71,15.34,15.34,0,0,0-5.13,12.1,17.35,17.35,0,0,0,17.24,17.47h.21c7.88-.39,13.69-3.42,17.11-9.46Z"></path><path class="cls-3" d="M582.38,85.36A32.62,32.62,0,0,1,595,73.6a41.35,41.35,0,0,1,18.49-4.37A37.37,37.37,0,0,1,632,73.6a31.45,31.45,0,0,1,12.32,11.76,34.13,34.13,0,0,1,4.45,16.81A30.89,30.89,0,0,1,644.32,119,27.5,27.5,0,0,1,632,130.73a40.31,40.31,0,0,1-18.47,4.38,41.41,41.41,0,0,1-18.48-4,29.46,29.46,0,0,1-12.66-11.43c-3.08-5-4.45-10.76-4.45-17.82A31.41,31.41,0,0,1,582.38,85.36Zm19.84,29.25c2.74,3.35,6.5,4.7,10.95,4.7a14.39,14.39,0,0,0,11-4.7c2.74-3,4.11-7.4,4.11-12.1q0-7.59-4.11-12.11a14.34,14.34,0,0,0-11-4.7,14.86,14.86,0,0,0-10.95,4.7c-3.08,3-4.44,7.4-4.44,12.11A21.07,21.07,0,0,0,602.22,114.61Z"></path><path class="cls-3" d="M718.91,74.6c4.1,3.35,5.81,7.73,6.15,13.1v46.05H704.87V95.1Q704.36,86,695.64,86c-4.45,0-8.22,2-11,6.4s-4.11,9.73-4.11,16.13v25.21h-19.8V72.58h18.14l1.37,9.74a25.53,25.53,0,0,1,9.58-9.41c4.1-2.35,8.9-3.36,14.37-3.36C710,69.55,715.14,71.24,718.91,74.6Z"></path><path class="cls-3" d="M138.32,72.65a11.56,11.56,0,0,0-11.23,0L101.32,87.58,83.85,97.31,58,112.24a11.49,11.49,0,0,1-11.22,0L26.33,100.57a11.16,11.16,0,0,1-5.61-9.41v-23a10.5,10.5,0,0,1,5.61-9.41L46.49,47.34a11.51,11.51,0,0,1,11.23,0L77.86,58.7a11.17,11.17,0,0,1,5.62,9.41V83L101,73V58.1a10.49,10.49,0,0,0-5.6-9.41L58,27.21a11.44,11.44,0,0,0-11.22,0l-38,21.43A10.5,10.5,0,0,0,3.21,58.1v43.15a10.51,10.51,0,0,0,5.62,9.41l38,21.41a11.44,11.44,0,0,0,11.22,0l25.81-14.64,17.47-10.1,25.77-14.6a11.56,11.56,0,0,1,11.23,0l20.14,11.36a11.15,11.15,0,0,1,5.62,9.4v23a10.5,10.5,0,0,1-5.62,9.41l-20.14,11.68a11.51,11.51,0,0,1-11.23,0l-20.16-11.35a11.17,11.17,0,0,1-5.61-9.42V122L83.85,132v14.88a10.46,10.46,0,0,0,5.62,9.41l38,21.48a11.44,11.44,0,0,0,11.22,0l38-21.41a11.17,11.17,0,0,0,5.62-9.41V103.83a10.5,10.5,0,0,0-5.62-9.41Z"></path></g><rect class="cls-1" width="800" height="205"></rect><rect class="cls-1" width="800" height="205"></rect></g></g></svg>