<svg xmlns="http://www.w3.org/2000/svg" viewBox="0 0 800 205"><defs><style>.cls-1{fill:#fff;}.cls-2{fill:none;}</style></defs><g id="Layer_2" data-name="Layer 2"><g id="Layer_1-2" data-name="Layer 1"><g id="Canvas"><g id="logo_solid_side" data-name="logo solid side"><g id="logo_solid_white" data-name="logo solid white"><path id="path1_stroke" data-name="path1 stroke" class="cls-1" d="M69.29,28.51,73,23.73a6.06,6.06,0,0,0-7.4,0Zm63.33,18.6,6,.1a6.05,6.05,0,0,0-5.95-6.14h-.1ZM69.29,176.49l-3.35,5a6,6,0,0,0,6.7,0ZM6.05,47.11v-6a6,6,0,0,0-6,6v.09ZM65.59,33.28c27.42,21.24,58.79,19.88,67,19.88V41.07c-8.53,0-35.86,1.08-59.64-17.34Zm61,13.73c-.46,28.07-1.65,47.86-3.92,62.53-2.24,14.51-5.45,23.2-9.58,29.31-4.19,6.34-9.45,10.11-17.21,14.76S78.12,163.37,66,171.46l6.69,10.06c11.58-7.72,21.24-12.64,29.44-17.54s15.54-10.41,21-18.36c5.53-8.19,9.13-18.86,11.5-34.24,2.35-15.22,3.59-35.84,4.06-64.17ZM72.64,171.46c-12.18-8.09-22.08-13.14-29.92-17.85s-13-8.41-17.18-14.76c-4.11-6.1-7.32-14.78-9.55-29.31S12.54,75.08,12.08,47L0,47.21c.46,28.33,1.7,48.95,4,64.17,2.37,15.38,6,26.05,11.5,34.23C21,153.56,28.27,159,36.53,164S54.37,173.8,66,181.52ZM6,53.16c8.16,0,39.53,1.36,66.93-19.88l-7.39-9.55C41.81,42.15,14.47,41.07,6,41.07Z"></path></g><g id="labels"><g id="TRUST"><path id="path2_fill" data-name="path2 fill" class="cls-1" d="M203.36,78.64h-18.7v50.87H172.07V78.64H153.62V68.45h49.74Zm29.83,28.55h-10v22.35H210.57V68.45h22.72q10.82,0,16.69,4.82t5.87,13.63a18.85,18.85,0,0,1-2.72,10.44,18.27,18.27,0,0,1-8.2,6.63l13.21,24.95v.59h-13.5Zm-10-10.2h10.15c3.16,0,5.61-.79,7.34-2.39a8.6,8.6,0,0,0,2.6-6.66,9.2,9.2,0,0,0-2.48-6.8c-1.64-1.65-4.15-2.48-7.5-2.47h-10.1Zm88.5-28.51V108.7q0,10-6.31,15.85t-17.11,5.83q-10.73,0-17-5.68t-6.41-15.56V68.45h12.58v40.3q0,6,2.85,8.77c1.9,1.84,4.55,2.75,8,2.72q10.61,0,10.78-11.15V68.45Zm42,45a6.41,6.41,0,0,0-2.52-5.46q-2.52-1.89-9.06-4a65.52,65.52,0,0,1-10.36-4.2q-10.41-5.61-10.4-15.14a14.7,14.7,0,0,1,2.77-8.83,18.17,18.17,0,0,1,8-6.08,30.25,30.25,0,0,1,11.74-2.18A27.2,27.2,0,0,1,355.48,70a18.32,18.32,0,0,1,7.93,6.67,17.42,17.42,0,0,1,2.85,9.81H353.69A8.18,8.18,0,0,0,351,80c-1.76-1.53-4.24-2.32-7.42-2.35a11.61,11.61,0,0,0-7.18,2,6.12,6.12,0,0,0-2.55,5.12,5.89,5.89,0,0,0,3,5,33.64,33.64,0,0,0,8.83,3.78q10.73,3.24,15.64,8a16,16,0,0,1,4.91,11.91,14.75,14.75,0,0,1-6,12.46q-6,4.53-16.15,4.49a31.27,31.27,0,0,1-12.83-2.53,20.57,20.57,0,0,1-8.83-7.09,18.18,18.18,0,0,1-3-10.42h12.62q0,10.1,12.08,10.09a11.87,11.87,0,0,0,7-1.8A6,6,0,0,0,353.64,113.5Zm67.15-34.86h-18.7v50.88H389.47V78.64H371.05V68.45h49.74Z"></path></g><g id="WALLET"><path id="path3_fill" data-name="path3 fill" class="cls-1" d="M454.78,116.11l1.48,7.4,1.8-7.07,10.35-35.15h3.64l10.22,35.15,1.77,7.14,1.57-7.47,8.62-34.82h4.13L486.14,129h-3.87L471.48,91.66,470.22,87,469,91.66,458,129h-3.86l-12.2-47.7H446Zm75.65-.49H508.78L503.86,129h-4.22l18.05-47.7h3.83L539.57,129h-4.19ZM510,112.18h19.13l-9.56-26Zm40.66,13.4h23.56V129H546.62V81.28h4.06Zm35.38,0h23.57V129H582V81.28h4.06Zm57.67-19.46H621.41v19.46h25.66V129H617.39V81.28h29.52v3.44h-25.5v18h22.32Zm44.88-21.4H672.26V129h-4V84.72H651.9V81.28h36.69Z"></path></g></g></g></g><rect class="cls-2" width="800" height="205"></rect></g></g></svg>