<svg xmlns="http://www.w3.org/2000/svg" viewBox="0 0 128 120.86"><defs><style>.cls-1{fill:#fff;}</style></defs><g id="Layer_2" data-name="Layer 2"><g id="Layer_1-2" data-name="Layer 1"><path class="cls-1" d="M54.85.48C72.11.38,118.35.05,124.22,0c2.43,0,3.16,1.11,2,3.33-1.5,2.92-35.52,65.74-41.73,77.37-1,1.84-2.08,2.69-4.33,2.61-5.81-.2-18-.06-18.32-.07-2.16,0-2.53-.66-1.52-2.55,4.9-9.07,22.81-43.09,26.85-51a3.21,3.21,0,0,0-2.89-4.82c-1.46,0-74.78,0-81.89-.05C.18,24.79,0,24.62,0,22.39Q0,13,0,3.56C0,1.05.08,1,2.56,1,20,.82,54.85.49,54.85.48Z"/><path class="cls-1" d="M126.94,96.06a1,1,0,0,1,1,1.13c0,.3,0,14,0,20.59,0,2-.07,2.07-2.08,2.08-6.28,0-119,1-122.16,1-2.4,0-3.12-1.24-1.94-3.41C8.06,105.9,40.9,45.06,44.12,39a2.31,2.31,0,0,1,2.33-1.43c6.46,0,19.84,0,20.07,0,1.63.16,2,.73,1.29,2.18C66.64,42.16,43.21,86.38,40.88,91c-1.28,2.53,0,4.76,2.79,5C44.25,96,126.53,96,126.94,96.06Z"/></g></g></svg>