<svg xmlns="http://www.w3.org/2000/svg" viewBox="0 0 800 205"><defs><style>.cls-1{fill:#fff;}.cls-2{fill:#009345;}.cls-3{fill:none;}</style></defs><g id="Layer_2" data-name="Layer 2"><g id="Layer_1-2" data-name="Layer 1"><path class="cls-1" d="M267.08,84.18c-1.76-6.85-6.19-11.86-14.85-11.86-12.78,0-18.13,11.27-18.13,22.71s5.35,22.72,18.13,22.72c9.28,0,14.37-6.93,15.2-15.61h10.19c-.84,14.28-10.94,24.13-25.37,24.13-17.88,0-28.57-14.2-28.57-31.24s10.66-31.27,28.53-31.27c13.45.08,24,7.52,25.31,20.38Z"/><path class="cls-1" d="M283.79,103.19c0-13.2,7.93-22.72,21.79-22.72s21.8,9.52,21.8,22.72-7.93,22.8-21.8,22.8S283.79,116.47,283.79,103.19Zm34.07,0c0-7.43-3.76-15.2-12.28-15.2s-12.27,7.77-12.27,15.2,3.75,15.29,12.27,15.29S317.86,110.71,317.86,103.19Z"/><path class="cls-1" d="M335.57,65.19h9.52v9h-9.52Zm0,16.45h9.52v43.18h-9.52Z"/><path class="cls-1" d="M355.45,81.64h9V88l.17.17a15.46,15.46,0,0,1,13.45-7.69c9.35,0,15.28,5,15.28,14.69v29.66h-9.52V97.67C383.68,90.91,381,88,375.41,88,369.07,88,365,93,365,99.35v25.47h-9.52Z"/><path class="cls-1" d="M456.76,124.82h-6.68l-1.58-7c-5.57,6.35-10.69,8.43-17.95,8.43C412.69,126.25,402,112,402,95s10.71-31.24,28.56-31.24c13,0,24,6.93,25.56,20.38H445.91c-1-7.85-7.85-11.86-15.37-11.86-12.78,0-18.13,11.28-18.13,22.72s5.35,22.72,18.13,22.72c10.69.16,16.53-6.27,16.71-16.38H431.38V93.42h25.37Z"/><path class="cls-1" d="M474.22,105.69c0,6.77,3.68,12.79,11.61,12.79,5.51,0,8.86-2.43,10.52-7.19h9c-2.09,9.44-10.11,14.7-19.55,14.7-13.52,0-21.13-9.44-21.13-22.72,0-12.28,8.05-22.8,20.88-22.8,13.62,0,22,12.28,20.39,25.22Zm22.22-6.26C496.11,93.42,492,88,485.58,88c-6.6,0-11.1,5-11.36,11.44Z"/><path class="cls-1" d="M542.38,96.09c-.75-5.26-4.59-8.1-9.85-8.1-4.95,0-11.86,2.59-11.86,15.7,0,7.18,3.17,14.79,11.44,14.79,5.51,0,9.35-3.68,10.27-9.86h9.53c-1.76,11.19-8.67,17.37-19.8,17.37-13.54,0-21-9.6-21-22.3,0-13,7.11-23.22,21.3-23.22,10,0,18.56,5,19.47,15.62Z"/><path class="cls-1" d="M560,65.19h9.52V99.1l17.21-17.46h11.69L581.83,97.51,600,124.82H588.32l-13.19-21-5.68,5.51v15.47H560Z"/><path class="cls-1" d="M602.52,103.19c0-13.2,7.94-22.72,21.8-22.72s21.81,9.52,21.81,22.72S638.19,126,624.32,126,602.52,116.47,602.52,103.19Zm34.08,0c0-7.43-3.76-15.2-12.28-15.2s-12.27,7.77-12.27,15.2,3.75,15.29,12.27,15.29,12.28-7.77,12.28-15.29Z"/><path class="cls-1" d="M145.5,41.86a85.38,85.38,0,1,0,25.27,60.26A85.4,85.4,0,0,0,145.5,41.86Zm5.76,104.23a79,79,0,1,1,13.1-43.94A79,79,0,0,1,151.26,146.09Z"/><path class="cls-1" d="M86.84,28.66a43.49,43.49,0,0,1,15.18,0,46.25,46.25,0,0,1,14.49,4.86c4.51,2.47,8.4,5.83,12.27,9s7.73,6.38,11.4,9.9a58.08,58.08,0,0,1,9.72,11.76,66.67,66.67,0,0,1,6.8,13.72A62.33,62.33,0,0,1,159.5,108H159a138.5,138.5,0,0,0-7.42-28.22,110.27,110.27,0,0,0-5.84-13.15,129.55,129.55,0,0,0-7.69-12.33,44.75,44.75,0,0,0-10.29-10.4c-4-2.85-8.62-4.7-13.08-6.46s-8.89-3.58-13.54-4.91-9.38-2.34-14.32-3.31Z"/><path class="cls-2" d="M85.68,60.37c4,.29,18.36,4.95,22.08,7.5C104.66,58.9,94.25,57.7,85.68,60.37Z"/><path class="cls-1" d="M66.6,90.79a10.74,10.74,0,1,0-2.94-5.5A10.73,10.73,0,0,0,66.6,90.79Z"/><path class="cls-1" d="M125.44,74.28c-5.73-1.66-11.67-4-17.68-6.38-.35-1.51-1.69-3.4-4.39-5.69-3.93-3.41-11.31-3.32-17.69-1.81-7-1.66-14-2.25-20.67-.62C36,67.77,31.13,81.89,30,98.91c-1.56,18.72-2.44,32.63-9.51,48.52C34.3,169.63,66.85,186.87,97,180.76c.8-.15,1.61-.3,2.41-.47l0-.06h0c-3.31-23.11,16.89-45.75,28.27-57.33,2.52-2.55,6.35-6,10-9.76C152.68,99.25,155.88,82.57,125.44,74.28Zm.37,22.78A3.39,3.39,0,0,1,127,95.57a3.31,3.31,0,0,1,5.16,2.72,3.28,3.28,0,0,1-.54,1.85,3.33,3.33,0,0,1-1.48,1.22,3.32,3.32,0,0,1-3.61-.69,3.28,3.28,0,0,1-.92-1.69A3.32,3.32,0,0,1,125.81,97.06Zm-45.76.11a15.25,15.25,0,1,1,6.85-5.62A15.26,15.26,0,0,1,80.05,97.17Zm52.53,16.51a75.6,75.6,0,0,1-15.18,6.95c-5.23,1.7-10.68,3-16.2,2.35S90,120,86.37,114.79l.18-.25a24,24,0,0,0,14.81,5.13,55.67,55.67,0,0,0,15.56-1.61,72.56,72.56,0,0,0,15.13-5.88,54.35,54.35,0,0,0,13.88-9.67l.18.25A57.87,57.87,0,0,1,132.58,113.68Z"/><rect class="cls-3" width="800" height="205"/></g></g></svg>