<svg xmlns="http://www.w3.org/2000/svg" viewBox="0 0 800 205"><defs><style>.cls-1{fill:#fff;}.cls-2{fill:none;}</style></defs><g id="Layer_2" data-name="Layer 2"><g id="Layer_1-2" data-name="Layer 1"><path class="cls-1" d="M39.53,178.2C26.81,178.07,17.15,174.86,9.3,167c-11.49-11.52-12.5-30.57-2.1-43.06,9.34-11.21,21.33-15.48,35.73-13.06A44.46,44.46,0,0,1,63.73,120c2.14,1.72,2.2,2.29.3,4.24s-3.79,3.67-5.56,5.62c-1.31,1.47-2.34,1.69-4,.39A30.55,30.55,0,0,0,34.12,124c-10.34.35-20,9.36-20.37,19.62-.34,9.3,5.52,16.57,15.18,19.66,10.86,3.48,20.26.12,28.48-6.68,7-5.83,13.55-12.34,20.07-18.78,8.85-8.73,17.56-17.6,28.85-23.27,15-7.5,33.25-5.31,45.39,6.12a32.19,32.19,0,0,1,3.66,42.79c-10.34,13.41-24.13,17.09-40.27,13.33a40.9,40.9,0,0,1-16.83-8.19c-2.3-1.88-2.27-2.3-.2-4.4,1.91-1.93,3.9-3.79,5.74-5.8,1.21-1.31,2-1.34,3.54-.22,8.6,6,18,8.85,28.09,4.4,12-5.29,17.44-19.68,7.7-31.05-4.43-5.18-10.66-7.06-17.32-7.55-9.19-.69-16.66,3.48-23.07,9.21-9.63,8.6-18.64,17.89-28,26.77-5.88,5.56-12.17,10.64-19.56,14.13C49.66,176.7,43.93,178.5,39.53,178.2Z"/><path class="cls-1" d="M82.28,26.78c15.39-.51,27.07,10.29,28.85,25.6,1.66,14.19-3.18,26.08-13.47,35.5-11.19,10.25-24.88,7.49-34.37-3.42A41.23,41.23,0,0,1,53.05,60.71C51.71,46,59.2,30.14,76.45,27.2,78.36,26.88,80.34,26.91,82.28,26.78ZM97.7,57.45c0-.68,0-1.37,0-2-.46-8.79-6-14.68-14.88-15C75.27,40.15,69,43.69,67.19,53,65.35,62.69,69,70.65,75.55,77.28c4.58,4.62,9.25,4.25,13.85-.43A28.1,28.1,0,0,0,97.7,57.45Z"/><path class="cls-1" d="M259.39,137.84q-6.31,7.62-15.19,7.62-10.42,0-16.13-7.42t-5.72-20q0-13,6.39-20.62a20.14,20.14,0,0,1,16.07-7.59,21.16,21.16,0,0,1,14.58,5.31V70.74h9.42V144.2h-9.42Zm0-8.92V103.66q-6.12-6.47-14-6.46a11.25,11.25,0,0,0-9.7,5.23q-3.63,5.23-3.63,15.61,0,9.83,3.43,14.91A10.85,10.85,0,0,0,245,138Q252.92,138,259.39,128.92Z"/><path class="cls-1" d="M313.09,145.46q-11.73,0-18.84-7.35t-7.12-20.47q0-13,6.89-20.42t18-7.39q11.37,0,18.16,7.27T337,117.64v2.26H297q.6,9.21,5.09,13.68a15.07,15.07,0,0,0,11,4.46,16.33,16.33,0,0,0,9-2.53,8.53,8.53,0,0,0,4.18-7.19H336A17.62,17.62,0,0,1,328.55,141,26.22,26.22,0,0,1,313.09,145.46Zm13.93-33q-1.15-7.67-5.16-11.48a14.49,14.49,0,0,0-19.54,0q-4.06,3.78-5.17,11.5Z"/><path class="cls-1" d="M398.92,144.2H387.19L374,123.46,360.73,144.2H349l19.65-27.61L350.56,91h11.72L374,109.62,385.64,91h11.72l-18.09,25.46Z"/><path class="cls-1" d="M426.71,144.2H416.44V133.93h10.27Z"/><path class="cls-1" d="M493.59,140.09q0,25.66-23.15,25.66-10,0-15.81-4.36a13.91,13.91,0,0,1-5.79-11.72h9.77q0,8.72,11.73,8.72,6.62,0,10.22-3.64t3.61-14.25v-2.66q-6.32,7.62-15.18,7.62-10.42,0-16.14-7.42t-5.71-20q0-13,6.39-20.62a20.12,20.12,0,0,1,16.06-7.59,21.16,21.16,0,0,1,14.58,5.31V91h9.42Zm-9.42-11.17V103.66q-6.12-6.47-14-6.46a11.26,11.26,0,0,0-9.7,5.23q-3.63,5.23-3.63,15.61,0,9.83,3.43,14.91a10.85,10.85,0,0,0,9.5,5.09Q477.71,138,484.17,128.92Z"/><path class="cls-1" d="M549,137.44q-7.07,8-15.89,8-18,0-18-19.65V91h9.47v34.38c0,4.34.77,7.47,2.31,9.37s4.07,2.86,7.62,2.86q7.9,0,14.48-8.52V91h9.42V144.2H549Z"/><path class="cls-1" d="M607.66,99.65a21.13,21.13,0,0,0-5.76-.6q-7.21,0-12.38,7.57V144.2h-9.47V91h9.47v7.42q6-8.62,13.83-8.62a24.87,24.87,0,0,1,4.31.4Z"/><path class="cls-1" d="M655.6,137.44q-7.07,8-15.88,8-18,0-18-19.65V91h9.47v34.38c0,4.34.76,7.47,2.3,9.37s4.08,2.86,7.62,2.86q7.92,0,14.48-8.52V91H665V144.2H655.6Z"/><rect class="cls-2" width="800" height="205"/></g></g></svg>