<svg xmlns="http://www.w3.org/2000/svg" viewBox="0 0 800 205"><defs><style>.cls-1{fill:#fff;}.cls-2{fill:none;}</style></defs><g id="Layer_2" data-name="Layer 2"><g id="Layer_1-2" data-name="Layer 1"><path class="cls-1" d="M67.34,25.73c3.42,1.73,6.84,3.47,10.28,5.17,5.8,2.86,11.61,5.68,17.41,8.52.47.23.92.5,1.66.89-.65.36-1.07.62-1.51.84-6.47,3.18-12.93,6.38-19.43,9.48a3.31,3.31,0,0,1-2.36,0c-1.73-.69-3.33-1.7-5.06-2.39a3.48,3.48,0,0,0-2.38,0C64.12,49,62.4,50,60.6,50.79a2.45,2.45,0,0,1-1.78.09C51.94,47.56,45.1,44.17,38.25,40.8a5.72,5.72,0,0,1-.57-.49c.72-.38,1.34-.74,2-1.05Q52.43,33,65.22,26.66a17.31,17.31,0,0,0,1.47-.93Z"/><path class="cls-1" d="M22.49,135.82l21.9,10.78c-.77.46-1.23.77-1.72,1-6.32,3.13-12.63,6.28-19,9.34a3.24,3.24,0,0,1-2.5.06c-6.7-3.21-13.34-6.53-20-9.79A1.77,1.77,0,0,1,0,145.38q.06-9.7,0-19.4a1.9,1.9,0,0,1,1.29-1.93Q26.17,111.89,51,99.69,76.5,87.14,102,74.55l7.92-3.89c.5-.24,1-.53,1.82-1L89.89,58.86c.63-.38,1-.64,1.42-.85,6.51-3.22,13-6.46,19.56-9.6a3.07,3.07,0,0,1,2.36,0c6.6,3.16,13.15,6.44,19.73,9.64a2.1,2.1,0,0,1,1.26,2.17c-.06,6.25-.12,12.5-.1,18.75a2.39,2.39,0,0,1-1.49,2.5q-32.76,16-65.47,32.12Q45.44,124.24,23.75,135C23.44,135.14,23.16,135.38,22.49,135.82Z"/><path class="cls-1" d="M22.47,69.9c-.06.91-.13,1.57-.14,2.24-.06,8.39-.14,16.77-.15,25.16a2.46,2.46,0,0,1-1.59,2.59c-6.26,3-12.48,6.1-18.71,9.16-.47.22-.95.41-1.68.72-.06-.76-.13-1.32-.13-1.87,0-15.81,0-31.62-.07-47.43a2.4,2.4,0,0,1,1.6-2.54C8.1,54.8,14.54,51.57,21,48.45a3.11,3.11,0,0,1,2.36-.05Q48.26,60.49,73.05,72.7c.33.16.64.37,1.08.64a4.39,4.39,0,0,1-.76.61c-6.51,3.22-13,6.41-19.53,9.68a3.24,3.24,0,0,1-3.27,0C41.88,79.25,33.15,75,24.43,70.66,23.88,70.39,23.28,70.21,22.47,69.9Z"/><path class="cls-1" d="M60,131.91c4.3-2.13,8.26-4.1,12.23-6,2.78-1.37,5.59-2.68,8.34-4.1a2.92,2.92,0,0,1,3,0c8.65,4.33,17.33,8.59,26,12.86.61.31,1.25.57,2.15,1,.09-.91.22-1.61.22-2.31,0-8.33,0-16.67,0-25a2.55,2.55,0,0,1,1.66-2.71c6.25-3,12.47-6.11,18.7-9.17.46-.23.95-.41,1.67-.71.06.76.13,1.31.13,1.87,0,15.81,0,31.62,0,47.43a2.47,2.47,0,0,1-1.59,2.59c-6.45,3.1-12.85,6.32-19.31,9.39a3.48,3.48,0,0,1-2.65,0q-24.6-12.06-49.14-24.25C61,132.54,60.66,132.31,60,131.91Z"/><path class="cls-1" d="M96.59,165.05c-2.38,1.19-4.42,2.23-6.47,3.23-7.3,3.58-14.58,7.17-21.9,10.7a2.7,2.7,0,0,1-2,.15c-9.24-4.47-18.44-9-27.65-13.54-.23-.11-.44-.28-.9-.57.58-.35,1-.62,1.43-.84,6.47-3.2,12.93-6.41,19.43-9.53a5,5,0,0,1,2.22,0,1.45,1.45,0,0,1,.72.34c3.78,2.85,7.55,2.82,11.32,0,1.18-.89,2.28-.64,3.54,0,6.16,3.11,12.36,6.12,18.54,9.17C95.3,164.31,95.75,164.58,96.59,165.05Z"/><path class="cls-1" d="M425.66,82.26c-12.35,1.55-21.44,8.54-24.79,19a28.56,28.56,0,0,0,.87,20.72c3.42,8.13,10.77,13.9,20.54,16.09a46.51,46.51,0,0,0,13,.13c11.31-2.23,19.24-9.25,22.5-19.92.77-2.55.87-3.32.87-7.84s-.1-5.28-.87-7.83C454.58,92.09,446.94,85.16,436,82.84A54.1,54.1,0,0,0,425.66,82.26Zm6.93,13.83c4.1,1.06,7.93,3.74,9.74,6.83a15,15,0,0,1-.2,15.31c-5.12,8.06-16.82,9.39-23.85,2.68a14.32,14.32,0,0,1-.49-20.44A15.4,15.4,0,0,1,432.59,96.09Z"/><path class="cls-1" d="M485.94,82.26c-12.35,1.55-21.43,8.54-24.79,19A28.61,28.61,0,0,0,462,122c3.42,8.13,10.77,13.9,20.54,16.09a46.51,46.51,0,0,0,13,.13c11.32-2.23,19.25-9.25,22.5-19.92.78-2.55.87-3.32.87-7.84s-.09-5.28-.87-7.83c-3.22-10.51-10.86-17.44-21.79-19.76A54.1,54.1,0,0,0,485.94,82.26Zm6.93,13.83c4.1,1.06,7.93,3.74,9.74,6.83a15,15,0,0,1-.2,15.31c-5.12,8.06-16.82,9.39-23.85,2.68a14.31,14.31,0,0,1-.48-20.44A15.37,15.37,0,0,1,492.87,96.09Z"/><path class="cls-1" d="M567.14,82.42c-7.18,1-12.57,5.64-14.31,12.25-1.68,6.22-.48,12.6,2.87,15.7,2,1.84,4.35,2.93,10.86,5,6.32,2,7.74,2.9,8.38,5,.74,2.45-1.09,5.35-3.83,6.12a14.85,14.85,0,0,1-6.19,0,22.63,22.63,0,0,1-7.32-3.64,5.76,5.76,0,0,0-1.64-1.16,10.38,10.38,0,0,0-1.71,2.64c-1.06,2.06-1.42,2.51-1.52,1.93l-.09-.71H535.91V83.36H522.05v54.15h30.62v-1.45a4.21,4.21,0,0,1,.13-1.45c.07,0,1.32.58,2.8,1.26,4.55,2.13,7.42,2.74,13,2.74s8-.49,11.44-2.13a20,20,0,0,0,7.54-7.38c2.42-5,2.74-11.77.74-16.06a14.85,14.85,0,0,0-2.64-3.44c-2.35-2.39-4.9-3.65-11.44-5.74a44.35,44.35,0,0,1-5.74-2.13,3.85,3.85,0,0,1-.87-5.9c2.87-3.06,7.93-2.77,13.25.74l1,.68,2.81-5.38c1.51-2.94,2.74-5.39,2.67-5.45a45.69,45.69,0,0,0-6.48-2.58A31.65,31.65,0,0,0,567.14,82.42Z"/><path class="cls-1" d="M177.6,102.77v35.67h12.62c6.92,0,14.17-.2,16.06-.41,15.56-1.92,27.07-11.34,30.76-25.23a48.19,48.19,0,0,0,.61-17.49,33.24,33.24,0,0,0-25.23-26.83c-3.77-1-4.34-1-19.33-1.23l-15.49-.16Zm27.53-21.1c9.79,2.09,16.3,10.28,16.3,20.52,0,6.8-2.13,12.66-6,16.51s-9.63,5.78-17.61,5.82H194V81.1h4.22A46.71,46.71,0,0,1,205.13,81.67Z"/><path class="cls-1" d="M243.55,102.81v35.63l30,0h30l7.74-10.85c4.3-5.94,7.86-10.82,8-10.82s3.77,4.88,8,10.86l7.79,10.85h9.74c5.33,0,9.71-.12,9.71-.24s-5.73-8.15-12.7-17.82l-12.69-17.57,12.12-16.92c6.68-9.26,12.49-17.24,12.9-17.69.78-.78.78-.66.78,6.47v7.25h14.75v56.52h17.61V81.92l8.6-.08,8.56-.13-4.59-7.25-4.58-7.25-30.11,0H335.05L327.31,78c-4.3,5.94-7.86,10.81-8,10.85S315.6,84,311.34,78l-7.78-10.86h-60Zm53-17.86c6.88,9.54,12.54,17.57,12.54,17.82s-5.66,8.31-12.58,17.94L283.9,138.2l-.13-6.84-.08-6.84H259.93v-16h19.25V95H259.93V81.1h23.76V74.34c0-3.73.08-6.76.16-6.76S289.67,75.41,296.55,85Z"/><rect class="cls-2" width="800" height="205"/></g></g></svg>