<svg xmlns="http://www.w3.org/2000/svg" viewBox="0 0 800 205"><defs><style>.cls-1{fill:#fff;}.cls-2{fill:none;}</style></defs><g id="Layer_2" data-name="Layer 2"><g id="Layer_1-2" data-name="Layer 1"><path class="cls-1" d="M231.65,144.57a47.72,47.72,0,0,1-13.35-1.32c-3.17-.86-11.11-4.56-23.34-13.22-5.88-.2-14.8-2.45-21.28-8.33a31.7,31.7,0,0,1-10.44-23.4c0-18,13.08-33.91,35-33.91,17.32,0,32.79,12.89,32.79,32.33a32.56,32.56,0,0,1-23.21,31.79,188.43,188.43,0,0,0,24.59,13.88ZM201.71,124a19.25,19.25,0,0,1,2.77,1.78c7.74-2.12,15.74-10.64,15.74-26.37,0-19.9-10.78-31.4-24.46-31.4-11.31,0-21.68,9.65-21.68,27.63,0,16.32,8.66,28.16,20.49,30.54Z"/><path class="cls-1" d="M306.21,68.75c-5.75.34-8.26,1.79-8.66,5.76A146.18,146.18,0,0,0,297,89.84v7.6c0,11.44-1.85,19.83-7.6,25.78-4.63,4.7-11.37,6.81-18.18,6.81-6.08,0-11.83-1.32-16.26-4.69-6.08-4.5-9-11.83-9-23.47V78.8c0-8.92-.86-9.38-8.66-10v-2.9h26.5v2.9c-7.73.47-8.59,1.06-8.59,10V99.89c0,15.93,6.68,24.65,18.71,24.65,14,0,18.84-11.23,18.84-27.3v-7.4c0-8.72-.27-12.56-.8-15.6-.53-3.7-2.77-5-9.58-5.49v-2.9h23.86Z"/><path class="cls-1" d="M311.83,128.71v-2.78c8.06-.59,8.92-1.19,8.92-9.52V78.27c0-8.39-.86-9-8.92-9.52v-2.9h27v2.9c-8,.53-8.86,1.13-8.86,9.52v38.14c0,8.33.86,8.93,8.86,9.52v2.78Z"/><path class="cls-1" d="M407.34,112.12c-1.32,4.62-4,12.23-5.75,15.33-2.91.66-11.63,2.78-19,2.78-25.51,0-36.88-16.86-36.88-32.13,0-20.36,16.46-33.71,39.39-33.71,8.46,0,15.6,2.32,18.38,2.78.79,5.48,1.52,9.65,2.11,15.14l-3,.66C399.94,72.26,393.33,68,382.55,68c-16.85,0-25.84,13.61-25.84,28,0,18.25,11.17,30.41,26.7,30.41,10.25,0,15.87-5.49,21.09-15.47Z"/><path class="cls-1" d="M460.62,128.71c-7.34-8.26-15.2-17.32-24.19-27.83-2.32-2.78-3.64-3.17-5.36-2.91v18c0,8.52.93,9.32,9.26,9.91v2.78H413.62v-2.78c7.6-.59,8.46-1.39,8.46-9.91V78.67c0-8.79-.86-9.39-8.72-9.92v-2.9H439.6v2.9c-7.6.53-8.53,1.19-8.53,9.92V95.33c2.32-.53,4.23-2,7.21-4.63A220.17,220.17,0,0,0,454.47,74c3-3.5,2.84-4.56-1.78-5.15l-2.12-.14v-2.9H475v2.9c-7.4.67-10,1.72-16.26,7.08-4.16,3.7-10.9,10.31-17.25,16.46,7.34,9,17.91,20.82,23.33,26.57,5.09,5.42,7.27,6.48,11.9,7.07v2.78Z"/><path class="cls-1" d="M515.48,81c-1.72-6.21-4.76-13.22-13.09-13.22-7.4,0-10.9,5.23-10.9,10.51,0,6.81,4.56,10.12,12.62,14,8.4,4.1,17.12,8.66,17.12,19.3,0,10.38-8.86,18.64-22.34,18.64a32.34,32.34,0,0,1-14.81-3.64c-.66-1.91-2.11-10.7-2.71-15.4l3-.86c1.65,6.15,6.48,16.26,16.59,16.26,7.2,0,11.43-4.43,11.43-11.37s-5.28-10.31-12.82-14.27c-6.87-3.44-16.33-8.27-16.33-18.91,0-9.65,7.8-17.65,20.69-17.65a42.18,42.18,0,0,1,12.83,2.32c.39,3.43.86,7.4,1.72,13.74Z"/><path class="cls-1" d="M620.78,68.75c-6.74.93-7.8,1.92-10.78,10-2.31,6.14-8.26,24-16.52,51H590c-5.56-15.41-12.23-33.91-17.32-47.46h-.2c-5.49,16.46-11,32.05-16.2,47.46h-3.43c-5.29-17.46-10.91-34.38-16.4-51.23-2.51-8-4-9.06-10.11-9.79v-2.9h25v2.9c-7.4.86-7.4,1.92-6,6.81,3.84,12.69,7.67,25.58,12,38.87h.2c5.16-15.93,10.84-31.93,15.87-47.72h3.3c5.55,15.86,11.31,31.46,17.39,47.85h.19c4.24-13.09,9.65-31.79,11.11-37.94,1.39-5.75,1.06-7-6.87-7.87v-2.9h22.14Z"/><path class="cls-1" d="M652.84,128.71v-2.78c6.14-.86,7-1.72,5.68-5.62s-3.17-8.66-5.29-14.21H632c-1.65,4.43-3,8.2-4.23,12-2.11,5.89-1.32,7,6.15,7.8v2.78H612.12v-2.78c6.41-1,7.8-1.65,11.3-10.24l20.76-50.44,3.43-.86c6.35,17.12,12.69,34.31,19.24,51.3,3.17,8.52,4.56,9.58,11,10.24v2.78Zm-9.72-51h-.2c-3.17,8-6.28,16.26-9.25,24.06h18.11Z"/><path class="cls-1" d="M709.55,65.85c7.07,0,12.76,1.12,16.72,4s6.48,7.4,6.48,13.75c0,12.62-9.65,18.7-19.3,19.83a27.72,27.72,0,0,1-4.63.13l-7.4-1.85v14.74c0,8.26.86,8.79,9.85,9.45v2.78H683.64v-2.78c7.86-.66,8.72-1.45,8.72-9.52V78.27c0-8.66-.86-9-8.19-9.52v-2.9Zm-8.13,32.52a21.87,21.87,0,0,0,7.07,1.19c6.15,0,14-3.31,14-15.6,0-10.51-6.74-14.87-14.54-14.87-2.71,0-4.76.52-5.42,1.18s-1.06,1.72-1.06,4.43Z"/><path class="cls-1" d="M0,107.93V97.2c.4-2.37.72-4.75,1.2-7.09C7.14,61.28,24.39,42.72,52.41,34.18c4.46-1.36,9.22-1.76,13.84-2.6h10.1l6.79,1.15c37.28,6.21,65.5,42.68,57.39,83.59-7.56,38.14-43.46,62.57-81.8,56.05a70.48,70.48,0,0,1-57-54.57C1.07,114.54.58,111.22,0,107.93ZM91.1,48.8A56.7,56.7,0,0,0,61.21,46a58,58,0,0,0-47.4,67.33C19.34,145,51.38,169,87.75,158.88c17.44-4.84,27.56-20.44,25-37.57A42.49,42.49,0,0,0,76,84.79c-3.08-.42-6.27-.92-9.35-.09l8.57,7.44-.35.67c-16.38-3.76-32-3.12-45.51,8.42C26.12,91,30.44,82.72,37.51,78.56c0,.32,0,.63,0,.93-.32,3.47,1.13,4.82,4.41,3.69A17.92,17.92,0,0,0,47,80.12c1.76-1.4,3.32-2.89,5.75-1.41.25.16.74-.06,1.25-.11-3.87-3.25-4.52-5.19-2.45-8.19A11.54,11.54,0,0,1,55,67.32,53.05,53.05,0,0,1,60.12,65c5.53-2.54,11.26-4.79,14.66-10.93l2.47,7A61.37,61.37,0,0,0,91.1,48.8Zm36,67.61a54.28,54.28,0,0,0-.72-30.11,57.4,57.4,0,0,0-27.74-34c-1.71-1-2.36-1.8-1.78-3.92.74-2.7.8-5.57,1.2-8.73L89.48,54.79l2.9-.38A36.56,36.56,0,0,1,78.59,66.26,5.87,5.87,0,0,0,76.15,68c-1.26,2-2.25,4.17-3.5,6.58a34.39,34.39,0,0,0,10-5.19,5.82,5.82,0,0,1,4.7-1,61.46,61.46,0,0,1,17.06,5.29A55.65,55.65,0,0,1,122.1,86.86c-4.26-2.36-8-5.59-13-7.22l.48,2.38A48.17,48.17,0,0,0,91.47,77.3C112,82.47,123.71,95.51,127.08,116.41ZM70.33,66.59c-3.66,1.61-7.06,3-10.33,4.61A9.06,9.06,0,0,0,56.8,74c-.82,1.13-.58,2.27,1.24,2.19C63.47,76,68.78,73.56,70.33,66.59ZM33.48,89.92c1.45-.49,2.67-.91,3.89-1.31.47-.16,1.32-.25,1.33-.44a4.79,4.79,0,0,0-.27-2.29c-.11-.26-1.12-.38-1.57-.2A5.39,5.39,0,0,0,33.48,89.92Z"/><rect class="cls-2" width="800" height="205"/></g></g></svg>