<svg xmlns="http://www.w3.org/2000/svg" viewBox="0 0 800 205"><defs><style>.cls-1{fill:#fff;}.cls-2{fill:none;}</style></defs><g id="Layer_2" data-name="Layer 2"><g id="Layer_1-2" data-name="Layer 1"><path class="cls-1" d="M74.74,177.43a74.93,74.93,0,1,1,.51-149.86c41.31.05,74.69,33.75,74.61,75.32C149.77,144.07,116.11,177.47,74.74,177.43Zm60.47-75.18c-.14-.15-.51-.63-1-1.06Q115.1,82.38,95.88,63.63a5.54,5.54,0,0,0-3.54-1.24c-11.58-.09-23.16-.11-34.74,0a6.64,6.64,0,0,0-4.13,1.73C43.51,73.7,33.67,83.38,23.8,93l-9.66,9.42c.57.67.78,1,1,1.2q19.38,19,38.79,37.91a5.21,5.21,0,0,0,3.29,1.2q17.64.13,35.27,0a5.88,5.88,0,0,0,3.7-1.51q12.35-11.84,24.47-23.89C125.59,112.46,130.3,107.37,135.21,102.25Z"/><path class="cls-1" d="M49.62,102.59H62.48c.54,4.15,1.93,8.12,5.85,10.09a16.58,16.58,0,0,0,8.09,1.87c6.06-.4,10.57-5.66,10.77-11.66C87.4,96.26,83.09,91.65,75,90V77.34c12.64-1.18,24.5,10.28,25.34,24.34.82,13.73-10.62,25.77-25,26.28C61.59,128.46,49.63,116.84,49.62,102.59Z"/><path class="cls-1" d="M213.89,125.8c-1,0-2,0-3.17-.07s-2.28-.11-3.41-.2-2.27-.21-3.38-.35a26.66,26.66,0,0,1-3.06-.56V77.84a26.66,26.66,0,0,1,3.06-.56c1.11-.14,2.24-.25,3.38-.35s2.26-.16,3.37-.2,2.16-.07,3.14-.07a46.2,46.2,0,0,1,7.83.62A19.82,19.82,0,0,1,228,79.41a11.31,11.31,0,0,1,4.21,3.93,11,11,0,0,1,1.54,6,10.66,10.66,0,0,1-1.88,6.5,11.35,11.35,0,0,1-5,3.8,14.54,14.54,0,0,1,6.76,4q2.5,2.72,2.5,7.65,0,7.25-5.32,10.9T213.89,125.8Zm-6.34-28.33h7.1a30.83,30.83,0,0,0,4.73-.35,11.67,11.67,0,0,0,3.87-1.25,6.92,6.92,0,0,0,2.57-2.37,6.65,6.65,0,0,0,.94-3.69,6.07,6.07,0,0,0-1-3.51,7,7,0,0,0-2.68-2.3,14.57,14.57,0,0,0-4-1.29,27.2,27.2,0,0,0-4.88-.42c-1.71,0-3.06,0-4,.07s-1.86.12-2.65.21Zm0,5.43v17l1.81.14c.6,0,1.31.08,2.12.1s1.75,0,2.82,0a39.49,39.49,0,0,0,5.68-.39,15.61,15.61,0,0,0,4.7-1.36,8.24,8.24,0,0,0,3.23-2.71,7.48,7.48,0,0,0,1.22-4.39,8.21,8.21,0,0,0-.9-4,6.82,6.82,0,0,0-2.61-2.61,12.64,12.64,0,0,0-4.08-1.39,30.42,30.42,0,0,0-5.29-.42Z"/><path class="cls-1" d="M277.16,107.29a22.78,22.78,0,0,1-1.25,7.79,17.88,17.88,0,0,1-3.51,6,15.42,15.42,0,0,1-5.4,3.86,17.78,17.78,0,0,1-13.64,0,15.42,15.42,0,0,1-5.4-3.86,17.72,17.72,0,0,1-3.51-6,24.65,24.65,0,0,1,0-15.56,17.66,17.66,0,0,1,3.51-6,15.42,15.42,0,0,1,5.4-3.86,17.78,17.78,0,0,1,13.64,0,15.42,15.42,0,0,1,5.4,3.86,17.83,17.83,0,0,1,3.51,6A22.94,22.94,0,0,1,277.16,107.29Zm-6.75,0c0-4.09-.92-7.32-2.75-9.72a9.61,9.61,0,0,0-15,0c-1.83,2.4-2.75,5.63-2.75,9.72s.92,7.32,2.75,9.71a9.61,9.61,0,0,0,15,0Q270.4,113.42,270.41,107.29Z"/><path class="cls-1" d="M309,121.77a17.68,17.68,0,0,1-3.24,1.42,16.43,16.43,0,0,1-5.6.87,18.07,18.07,0,0,1-6.16-1,13.44,13.44,0,0,1-5.05-3.24,15.52,15.52,0,0,1-3.41-5.46,21.7,21.7,0,0,1-1.25-7.8,21.4,21.4,0,0,1,1.18-7.27,16.22,16.22,0,0,1,3.44-5.71,15.81,15.81,0,0,1,5.54-3.76,19,19,0,0,1,7.38-1.36,41.65,41.65,0,0,1,7.9.66q3.38.66,5.67,1.22v32.3q0,8.35-4.31,12.11T298,138.47a35.68,35.68,0,0,1-6.44-.55,38.21,38.21,0,0,1-5.26-1.33l1.19-5.63a30.91,30.91,0,0,0,4.77,1.35,28.12,28.12,0,0,0,5.88.59q5.78,0,8.32-2.29T309,123.3Zm-.07-26.88a24.31,24.31,0,0,0-2.61-.52,32,32,0,0,0-4.42-.24,9.85,9.85,0,0,0-8,3.41,13.74,13.74,0,0,0-2.82,9,15.72,15.72,0,0,0,.8,5.36,10.41,10.41,0,0,0,2.16,3.69,8.56,8.56,0,0,0,3.13,2.16,10,10,0,0,0,3.65.69,14.64,14.64,0,0,0,4.74-.73,11.51,11.51,0,0,0,3.41-1.7Z"/><path class="cls-1" d="M349.21,121.77a17.17,17.17,0,0,1-3.23,1.42,16.45,16.45,0,0,1-5.61.87,18.15,18.15,0,0,1-6.16-1,13.4,13.4,0,0,1-5-3.24,15.68,15.68,0,0,1-3.42-5.46,21.92,21.92,0,0,1-1.25-7.8,21.4,21.4,0,0,1,1.18-7.27,16.09,16.09,0,0,1,3.45-5.71,15.77,15.77,0,0,1,5.53-3.76A19.07,19.07,0,0,1,342,88.42a41.58,41.58,0,0,1,7.9.66q3.39.66,5.68,1.22v32.3q0,8.35-4.32,12.11t-13.08,3.76a35.6,35.6,0,0,1-6.44-.55,37.85,37.85,0,0,1-5.26-1.33L327.7,131a30.91,30.91,0,0,0,4.77,1.35,28.19,28.19,0,0,0,5.88.59q5.79,0,8.32-2.29c1.7-1.53,2.54-4,2.54-7.31Zm-.07-26.88a24.31,24.31,0,0,0-2.61-.52,31.91,31.91,0,0,0-4.42-.24,9.85,9.85,0,0,0-8,3.41,13.74,13.74,0,0,0-2.82,9,16,16,0,0,0,.8,5.36,10.71,10.71,0,0,0,2.16,3.69,8.59,8.59,0,0,0,3.14,2.16,10,10,0,0,0,3.65.69,14.57,14.57,0,0,0,4.73-.73,11.39,11.39,0,0,0,3.41-1.7Z"/><path class="cls-1" d="M364.74,107.36A23,23,0,0,1,366.13,99a17.64,17.64,0,0,1,3.69-6,15,15,0,0,1,5.29-3.55,16.7,16.7,0,0,1,6.13-1.18q7.31,0,11.2,4.56t3.9,13.89v1.08a9.22,9.22,0,0,1-.07,1.22H371.49q.42,5.64,3.27,8.56c1.9,2,4.88,2.92,8.91,2.92a23.53,23.53,0,0,0,5.75-.59,20.48,20.48,0,0,0,3.51-1.15l.91,5.43a19.34,19.34,0,0,1-4.15,1.33,29.65,29.65,0,0,1-6.71.69,21.11,21.11,0,0,1-8.18-1.43,15.29,15.29,0,0,1-5.68-3.93,16.08,16.08,0,0,1-3.3-6A25.18,25.18,0,0,1,364.74,107.36Zm24.85-3.56a10.88,10.88,0,0,0-2.19-7.2,7.56,7.56,0,0,0-6.23-2.82,8.56,8.56,0,0,0-3.94.87,9.49,9.49,0,0,0-2.89,2.26,10.38,10.38,0,0,0-1.84,3.21,15.76,15.76,0,0,0-.87,3.68Z"/><path class="cls-1" d="M429.06,72.48l6.47-1.12v53q-2.22.63-5.7,1.25a45.35,45.35,0,0,1-8,.63,20.35,20.35,0,0,1-7.52-1.32,16.15,16.15,0,0,1-5.71-3.76,16.72,16.72,0,0,1-3.65-6,22.85,22.85,0,0,1-1.29-7.9,25.73,25.73,0,0,1,1.08-7.66,17.24,17.24,0,0,1,3.17-6,14.46,14.46,0,0,1,5.11-3.9,16.55,16.55,0,0,1,6.93-1.39,16.8,16.8,0,0,1,5.54.84,17.13,17.13,0,0,1,3.58,1.6Zm0,24.36A13.62,13.62,0,0,0,425.65,95a12.91,12.91,0,0,0-4.87-.9,10.44,10.44,0,0,0-4.77,1,8.81,8.81,0,0,0-3.24,2.78,11.91,11.91,0,0,0-1.81,4.21,23.56,23.56,0,0,0-.56,5.23q0,6.33,3.14,9.78a10.76,10.76,0,0,0,8.35,3.44,33.88,33.88,0,0,0,4.42-.24,21.7,21.7,0,0,0,2.75-.52Z"/><path class="cls-1" d="M463.17,125.39V77.14h29.1v5.78H469.92V97.47h19.84v5.71H469.92v22.21Z"/><path class="cls-1" d="M503.34,82.64a4.14,4.14,0,0,1-3-1.15,4.54,4.54,0,0,1,0-6.19,4.38,4.38,0,0,1,5.92,0,4.56,4.56,0,0,1,0,6.19A4.15,4.15,0,0,1,503.34,82.64Zm3.27,42.75h-6.47V89.19h6.47Z"/><path class="cls-1" d="M517.75,90.23c1.48-.37,3.45-.77,5.91-1.18a51,51,0,0,1,8.5-.63,18.43,18.43,0,0,1,7.17,1.22,11.25,11.25,0,0,1,4.56,3.41,13.32,13.32,0,0,1,2.4,5.26,30.69,30.69,0,0,1,.7,6.75v20.33h-6.48V106.45a31.09,31.09,0,0,0-.45-5.71,9.66,9.66,0,0,0-1.5-3.83,5.9,5.9,0,0,0-2.78-2.12,12.27,12.27,0,0,0-4.32-.66c-.69,0-1.41,0-2.16.07s-1.45.1-2.12.17-1.28.15-1.81.25l-1.15.21v30.56h-6.47Z"/><path class="cls-1" d="M569.4,88.28a18.85,18.85,0,0,1,6.58,1,10.78,10.78,0,0,1,4.32,2.85,11,11,0,0,1,2.33,4.39,21.37,21.37,0,0,1,.69,5.6v22.63l-2.33.38c-1,.17-2.12.32-3.38.45s-2.61.27-4.07.39-2.91.17-4.35.17a24.3,24.3,0,0,1-5.64-.62,12.58,12.58,0,0,1-4.45-2,9.06,9.06,0,0,1-2.93-3.58,12.68,12.68,0,0,1-1-5.36,10.36,10.36,0,0,1,1.22-5.16,9.82,9.82,0,0,1,3.3-3.48,15.49,15.49,0,0,1,4.88-1.95,27,27,0,0,1,5.85-.62,20,20,0,0,1,2,.1c.7.07,1.36.17,2,.28l1.63.31,1,.21v-1.81a14.64,14.64,0,0,0-.35-3.16,7.23,7.23,0,0,0-1.25-2.79,6.47,6.47,0,0,0-2.47-2,9.71,9.71,0,0,0-4.08-.73,30.73,30.73,0,0,0-5.6.45,20.88,20.88,0,0,0-3.59.94l-.76-5.36a20.07,20.07,0,0,1,4.18-1.08A36.86,36.86,0,0,1,569.4,88.28Zm.56,32.44c1.53,0,2.89,0,4.07-.1a17.37,17.37,0,0,0,3-.39V109.44a8.77,8.77,0,0,0-2.26-.59,25.64,25.64,0,0,0-3.8-.24,24.46,24.46,0,0,0-3.1.21,9.61,9.61,0,0,0-3,.87,6.36,6.36,0,0,0-2.26,1.81,4.76,4.76,0,0,0-.91,3c0,2.32.75,3.93,2.23,4.83A11.55,11.55,0,0,0,570,120.72Z"/><path class="cls-1" d="M594,90.23c1.49-.37,3.46-.77,5.92-1.18a50.9,50.9,0,0,1,8.49-.63,18.36,18.36,0,0,1,7.17,1.22,11.12,11.12,0,0,1,4.56,3.41,13.2,13.2,0,0,1,2.41,5.26,30.71,30.71,0,0,1,.69,6.75v20.33h-6.47V106.45a30.15,30.15,0,0,0-.46-5.71,9.81,9.81,0,0,0-1.49-3.83,6,6,0,0,0-2.79-2.12,12.25,12.25,0,0,0-4.31-.66c-.7,0-1.42,0-2.16.07s-1.45.1-2.12.17-1.28.15-1.81.25l-1.15.21v30.56H594Z"/><path class="cls-1" d="M649.73,126.22a19.69,19.69,0,0,1-7.69-1.39,15.57,15.57,0,0,1-5.57-3.9,16.08,16.08,0,0,1-3.37-6,24.48,24.48,0,0,1-1.12-7.62,23.09,23.09,0,0,1,1.22-7.66,17.93,17.93,0,0,1,3.45-6,15.28,15.28,0,0,1,5.46-4,17.71,17.71,0,0,1,7.21-1.43,28.69,28.69,0,0,1,4.87.42A22.66,22.66,0,0,1,658.85,90l-1.46,5.5A15.86,15.86,0,0,0,654,94.41a19.06,19.06,0,0,0-4.08-.42q-5.43,0-8.32,3.41t-2.89,10a20.12,20.12,0,0,0,.67,5.36,11.05,11.05,0,0,0,2.08,4.17,9.3,9.3,0,0,0,3.66,2.68,13.87,13.87,0,0,0,5.43.94,20.79,20.79,0,0,0,4.66-.48,17.42,17.42,0,0,0,3.28-1l.9,5.43a6.83,6.83,0,0,1-1.6.66,21.91,21.91,0,0,1-2.37.56q-1.32.24-2.82.42A26.44,26.44,0,0,1,649.73,126.22Z"/><path class="cls-1" d="M664.35,107.36a23,23,0,0,1,1.4-8.39,17.33,17.33,0,0,1,3.69-6,15,15,0,0,1,5.29-3.55,16.65,16.65,0,0,1,6.12-1.18q7.32,0,11.21,4.56t3.9,13.89v1.08a9.22,9.22,0,0,1-.07,1.22H671.11q.4,5.64,3.27,8.56t8.91,2.92a23.45,23.45,0,0,0,5.74-.59,20.35,20.35,0,0,0,3.52-1.15l.9,5.43a19.4,19.4,0,0,1-4.14,1.33,29.68,29.68,0,0,1-6.72.69,21.18,21.18,0,0,1-8.18-1.43,15.25,15.25,0,0,1-5.67-3.93,16,16,0,0,1-3.31-6A25.18,25.18,0,0,1,664.35,107.36Zm24.86-3.56a10.88,10.88,0,0,0-2.2-7.2,7.55,7.55,0,0,0-6.23-2.82,8.55,8.55,0,0,0-3.93.87A9.37,9.37,0,0,0,674,96.91a10.38,10.38,0,0,0-1.84,3.21,14.82,14.82,0,0,0-.87,3.68Z"/><rect class="cls-2" width="800" height="205"/></g></g></svg>