<svg xmlns="http://www.w3.org/2000/svg" viewBox="0 0 800 205"><defs><style>.cls-1{fill:#fff;}.cls-2{fill:none;}</style></defs><g id="Layer_2" data-name="Layer 2"><g id="Layer_1-2" data-name="Layer 1"><path class="cls-1" d="M193,78.58c3.54,0,7.08-.18,10.61,0,9.06.53,14.84,6.5,15,15.29s-6,15.31-15.1,15.9a86.91,86.91,0,0,1-9.55.12c-3.93-.18-5.41,1.56-5.15,5.39.21,3,0,6,0,9,.08,4.34-2.74,4.62-6,4.63s-6.07-.41-6.06-4.67c0-13.77-.13-27.53.22-41.28,0-1.57,2.66-4.07,4.39-4.38,3.77-.67,7.75-.21,11.64-.21Zm3.75,8.91c-7.92,0-7.59,0-8,7.18-.29,5.3,1.77,7,6.72,6.36,1.75-.23,3.56,0,5.31-.19,4.26-.54,6.16-3.06,5.84-7.31C206.3,89,204,87.51,196.78,87.49Z"/><path class="cls-1" d="M547.8,96.15c4.92-1.29,8.4-2.79,12-3,7.25-.49,11.52,3.16,12,10.44.49,6.87.18,13.79.21,20.69,0,4-2.59,4.38-5.75,4.41-3.32,0-5.57-.83-5.61-4.64-.06-5.12,0-10.26-.34-15.38-.19-3.48-1-7.11-5.52-7-4.23.11-6.26,3-6.49,7-.27,4.76-.48,9.53-.46,14.3,0,4-1.51,5.75-5.69,5.74-4,0-5.86-1.33-5.82-5.53q.18-19.64,0-39.27c0-4,1.36-5.84,5.55-5.88,4.39,0,6.1,1.87,6,6.09C547.69,88.11,547.8,92.11,547.8,96.15Z"/><path class="cls-1" d="M349.94,116.71c5.06,6.47,4.61,8.86-2.78,10.92-9.94,2.76-19.77,2.74-28-4.73-8.49-7.74-9-17.94-6.47-28,4.77-18.8,26.74-20.45,38.6-13.87,3.19,1.77,2.08,4.4.57,6.28-1,1.19-3.16,1.41-4.82,2-.11,0-.3-.17-.46-.23-6.58-2.36-13.17-3.73-18.79,1.94-4.27,4.32-5.12,15.28-2.07,21.65,2.59,5.38,8.37,8.22,14.69,6.87C343.7,118.92,346.82,117.68,349.94,116.71Z"/><path class="cls-1" d="M512.82,129.55c-12.17-.79-20.55-6-24.13-15.64-4-10.8-1.33-24,6.17-30.47,7.89-6.79,21.74-8.08,31-3.18,3.24,1.71,3,3.67,1.82,6.49s-2.78,3.5-5.76,2.19a25.55,25.55,0,0,0-8.19-2c-7.13-.54-12.1,2.93-13.49,10a32.08,32.08,0,0,0-.15,12c1.87,9.63,10.39,13.08,21.35,8.59,3.88-1.59,5.93-.7,6.46,2.93.25,1.72-.77,4.83-2,5.34C521.74,127.57,517.21,128.39,512.82,129.55Z"/><path class="cls-1" d="M437.3,96.35c3.66-1,7.27-2.68,11-2.95,7.21-.53,11.47,3.17,12,10.44.48,6.85.17,13.76.21,20.65,0,4-2.53,4.42-5.71,4.44s-5.58-.76-5.65-4.58c-.11-5.47-.21-10.94-.48-16.4-.17-3.27-1.45-6.1-5.27-6-3.6.06-6.07,2.12-6.37,5.85-.41,5.09-.69,10.2-.67,15.3,0,4.31-1.72,6-6.07,5.91s-5.54-2-5.46-5.86c.13-7.24-.17-14.49.14-21.72.1-2.54,1.1-7,2.3-7.16,3.28-.6,6.88.59,10.36,1.07Z"/><path class="cls-1" d="M241.1,129c-11.78,0-19.34-7-19.45-17.82s7.68-18,19.76-18,19,6.79,18.91,18S253.05,129,241.1,129Zm7.59-18c0-6-2.85-9.58-7.54-9.6s-7.47,3.49-7.46,9.55,2.77,9.63,7.43,9.63S248.71,117,248.69,111.05Z"/><path class="cls-1" d="M285,93.24c12,.06,19,6.74,19,18s-7.34,17.91-19.69,17.81c-11.39-.1-18.82-7.06-19-17.76C265.15,100.29,272.93,93.17,285,93.24Zm7.34,17.66c-.09-6-3-9.53-7.69-9.46s-7.36,3.62-7.31,9.71,2.87,9.56,7.57,9.47S292.43,116.8,292.34,110.9Z"/><path class="cls-1" d="M378.59,129c-12,0-19.82-7.24-19.6-18.21s7.76-17.61,19.62-17.58,19.08,6.71,19.05,17.89S390.49,129,378.59,129ZM371,110.85c0,6.08,2.65,9.69,7.28,9.78s7.67-3.49,7.72-9.43-2.73-9.63-7.39-9.75S371.06,104.82,371,110.85Z"/><path class="cls-1" d="M600.66,125.19c-4.6,4.08-9.62,4.69-14.92,2.29-4.62-2.09-6.22-5.93-5.88-10.83s3.48-6.75,7.58-7.55c3.1-.61,6.35-.51,9.43-1.19,1.57-.34,2.92-1.7,4.37-2.61-1.37-1.36-2.64-3.71-4.14-3.87a21.34,21.34,0,0,0-8.79,1.16c-3.15,1-4.95.77-6.08-2.61s1-4.75,3.53-5.1c5.55-.76,11.2-1.65,16.75-1.4s9.48,4.57,9.85,10.13c.45,6.86.4,13.76.21,20.64,0,1.4-1.51,3.83-2.53,3.94-2.45.28-5-.42-7.52-1C601.84,127.06,601.38,126,600.66,125.19Zm1.35-8.08-.27-2.09c-1.26-.72-2.51-2-3.78-2-3-.07-6.58.09-6.59,4.16,0,1.35,2.76,4,3.69,3.8C597.54,120.33,599.71,118.47,602,117.11Z"/><path class="cls-1" d="M699.6,129.28c-3.79-.73-7.62-1.32-11.36-2.25-2.75-.69-4.14-2.23-3-5.49s2.76-3.32,5.67-2.4a37.69,37.69,0,0,0,9.84,1.6c1.36.05,2.77-1.45,4.16-2.24-1.21-1.09-2.25-2.62-3.67-3.15-3-1.11-6.17-1.54-9.19-2.52-3.8-1.22-6.38-3.53-6.67-7.92-.31-4.63,1.56-8.06,5.59-9.93,6.79-3.16,13.82-2.81,20.52.27,1.14.52,2.09,3.61,1.58,4.9s-3.08,2-4.73,2c-2.94-.06-5.86-1.19-8.8-1.26-1.15,0-2.34,1.62-3.51,2.5.93.9,1.72,2.21,2.84,2.63,2.46.93,5.1,1.38,7.66,2.08,6.66,1.83,9.37,5,9.1,10.53-.25,5.1-4.58,9.21-10.66,10a42.74,42.74,0,0,1-5.31,0Z"/><path class="cls-1" d="M673.24,128.73c-8.57-.25-13.06-4.64-13.33-13.12-.09-2.82-.07-5.65-.08-8.47,0-2.62-.25-4.71-3.67-5.37-1.18-.22-2.54-2.76-2.62-4.31-.07-1.29,1.43-3.66,2.53-3.84,3.38-.55,3.85-2.59,3.78-5.26-.1-3.65,1.81-5,5.27-5s6.15.51,6.16,4.68c0,3.56,1.21,5.41,5.28,5.5,1.34,0,3.67,2.79,3.63,4.25s-2.46,4-3.88,4c-4.3.08-5.09,2.36-4.93,5.75.15,3,0,6.1.84,8.89.5,1.66,2.74,2.78,4.13,4.2s2.64,2.87,3.95,4.31c-1.82,1.24-3.62,2.53-5.49,3.69C674.43,128.94,673.77,128.74,673.24,128.73Z"/><path class="cls-1" d="M633.39,97.33c3.22-1.57,5.64-3.45,8.27-3.78,1.79-.24,4.92,1.22,5.59,2.74,1.18,2.68.42,5.93-3.51,6.17-9.79.59-10.57,4.92-10.73,14.17,0,2-.11,3.9,0,5.84.19,4-1.07,6.25-5.7,6.25s-5.91-1.9-5.81-6.09c.18-7.42,0-14.85.08-22.28,0-2.68-.92-6.2,3.09-6.86C628.28,92.89,632.29,92.35,633.39,97.33Z"/><path class="cls-1" d="M416,111.76c0,4.22,0,8.45,0,12.67,0,3.85-2.47,4.51-5.69,4.5s-5.67-.56-5.66-4.48q0-13.22,0-26.42c0-3.91,2.43-4.49,5.64-4.49S416,94.17,416,98C416,102.6,416,107.18,416,111.76Z"/><path class="cls-1" d="M410.42,86.42c-4.22.54-6.1-1.22-6.09-5.61,0-4.71,2.64-5.3,6.49-5.36,4.2-.07,6.07,1.29,6.05,5.74C416.85,85.94,414.34,86.84,410.42,86.42Z"/><path class="cls-1" d="M13.51,117.45c-5.33-9.06-4.67-18.38.07-27.57C16.9,83.44,21.84,78.68,29,76.53c2-.61,3.12-1.59,3.33-3.83.89-9.22,6-16.17,12.53-22.24,9-8.3,18.42-16,29.64-21.27A57.26,57.26,0,0,1,102,23.54a9.09,9.09,0,0,1,3.66.53c1.53.81,3.64,1.94,3.94,3.29s-.91,3.57-2.13,4.66c-12,10.67-12.36,22.91-.58,33.94a74.43,74.43,0,0,0,8.68,6.44c3.89,2.7,8.11,5,11.73,8,8.87,7.37,10.86,16.75,5.76,27-1.46,3-1.11,4.36,1.55,6.29,11.71,8.47,16.73,21.52,13.12,33.55-2.66,8.88-8.69,14.94-16.71,19.18-8.75,4.62-18.32,6.38-28,7.48a245.8,245.8,0,0,1-51.52.78c-10.81-1-21.58-2.55-31.68-6.83-9.48-4-17-10.13-19.19-20.79-2.14-10.3,1.32-18.83,8.92-25.85,1.1-1,2.3-1.91,3.43-2.88A4.42,4.42,0,0,0,13.51,117.45ZM94.94,32.33l-.38-1.12c-4.73,1.34-9.66,2.23-14.17,4.11C66.27,41.18,55,50.91,45.14,62.37a25.33,25.33,0,0,0-4.28,8.19c-1.44,4.09-.7,4.89,3.48,5.89A65.87,65.87,0,0,1,54,79.23c2.12.86,3.82,2.74,2.73,5.38S53.39,87.8,50.8,87c-3.12-.91-6.17-2-9.32-2.8-7-1.74-13.15-.15-18,5.35s-7.45,11.82-5.22,19.25c1.48,4.92,3,5.14,7.9,4.82A58.59,58.59,0,0,1,40.5,114.9c2.66.49,4.86,2.65,3.79,5.81-1.13,3.38-4,2.89-6.56,1.92-8.93-3.37-16.48-.49-23.12,5.35-9.41,8.27-9.12,20.83,1,28.22A42.83,42.83,0,0,0,30,163c30.64,7.84,61.29,6.64,91.79-1a33,33,0,0,0,9.49-4.29,21,21,0,0,0,5.77-30.37,28.57,28.57,0,0,0-17.3-11.61c-2.43-.56-4.89-1-7.27-1.72-3.92-1.18-5.57-3.4-4.69-6,.81-2.35,3.87-3.41,7.4-2.49a65.44,65.44,0,0,0,6.48,1.76,4,4,0,0,0,3.19-1c4.07-5,3.81-13.68-.76-18.28-2.34-2.34-5.3-4.08-8-6-5.19-3.64-10.69-6.89-15.6-10.87C89.46,62.17,86.35,43.71,94.94,32.33Z"/><path class="cls-1" d="M75.54,152.56c-5-1.8-9.57-3.23-13.94-5.15-2.33-1-3.59-3.35-2.23-5.93s3.89-2.72,6.15-1.43c7,4,13.71,3.78,20.56-.31,2.18-1.31,4.73-1.37,6.21,1.24,1.61,2.83,0,5-2.41,6.11C85.29,149.13,80.49,150.7,75.54,152.56Z"/><path class="cls-1" d="M67.64,118.56c-.1,3.55-3.09,6.67-6.31,6.58s-5.92-3.28-5.92-7a6,6,0,0,1,6-6.21A6.43,6.43,0,0,1,67.64,118.56Z"/><path class="cls-1" d="M89.64,112a6.4,6.4,0,0,1,6.47,6.3c.06,3.52-2.79,6.76-6,6.85s-6-2.93-6.17-6.65A6,6,0,0,1,89.64,112Z"/><rect class="cls-2" width="800" height="205"/></g></g></svg>