<svg xmlns="http://www.w3.org/2000/svg" viewBox="0 0 800 205"><defs><style>.cls-1,.cls-2{fill:#fff;}.cls-2{fill-rule:evenodd;}.cls-3{fill:none;}</style></defs><g id="Layer_2" data-name="Layer 2"><g id="Layer_1-2" data-name="Layer 1"><path id="path2" class="cls-1" d="M182.86,129h14.41V72.54h18.85V58.91H164.2V72.54h18.66Z"/><path id="path4" class="cls-1" d="M216.15,129h13.52v-23.6c0-8.19,4.25-13.13,10.66-13.13a18.16,18.16,0,0,1,6.12,1.09V79.65a14.91,14.91,0,0,0-4.54-.6,13.15,13.15,0,0,0-12.24,8.49V79.65H216.15Z"/><path id="path6" class="cls-1" d="M272.41,130.09c6.81,0,11.95-3.45,14.22-6.61V129h13.52V79.65H286.63v5.52c-2.27-3.15-7.41-6.61-14.22-6.61-13.13,0-23.2,11.85-23.2,25.77S259.28,130.09,272.41,130.09Zm2.87-12.34c-7.51,0-12.44-5.62-12.44-13.42s4.93-13.43,12.44-13.43,12.43,5.63,12.43,13.43S282.78,117.75,275.28,117.75Z"/><path id="path8" class="cls-1" d="M332.36,130.09c6.81,0,11.94-3.45,14.21-6.61V129H360.1V55H346.57v30.2c-2.27-3.15-7.4-6.61-14.21-6.61-13.13,0-23.2,11.85-23.2,25.77S319.23,130.09,332.36,130.09Zm2.86-12.34c-7.5,0-12.44-5.62-12.44-13.42s4.94-13.43,12.44-13.43,12.44,5.63,12.44,13.43S342.72,117.75,335.22,117.75Z"/><path id="path10" class="cls-1" d="M379,71.55A8.59,8.59,0,1,0,370.38,63,8.62,8.62,0,0,0,379,71.55ZM372.26,129h13.52V79.65H372.26Z"/><path id="path12" class="cls-1" d="M397.78,129h13.53V104.92c0-9.48,4.64-14,11-14,5.62,0,8.68,4.34,8.68,11.45V129h13.53V100.08c0-12.83-7.11-21.52-19.06-21.52-6.41,0-11.45,2.76-14.11,6.71V79.65H397.78Z"/><path id="path14" class="cls-1" d="M478.89,116.17a12.64,12.64,0,1,1,12.54-12.63A12.32,12.32,0,0,1,478.89,116.17Zm-1.58,34.46c15.11,0,26.56-7.7,26.56-25.47V79.65H490.35v5.52c-2.67-3.85-8-6.61-14.32-6.61-12.93,0-23.29,11.06-23.29,25S463.1,128.41,476,128.41c6.32,0,11.65-2.86,14.32-6.51v3.36c0,7.89-5.23,13.52-13.23,13.52a21.71,21.71,0,0,1-15.4-6.12l-7.41,10.07C459.94,148.16,468.73,150.63,477.31,150.63Z"/><path id="path16" class="cls-1" d="M532.47,129H545.2l29-70.1h-15.8l-19.54,48.67L519,58.91h-15.5Z"/><path id="path18" class="cls-1" d="M586.64,71.55A8.59,8.59,0,1,0,578.05,63,8.61,8.61,0,0,0,586.64,71.55ZM579.93,129h13.52V79.65H579.93Z"/><path id="path20" class="cls-1" d="M628.45,130.09c10.36,0,18.27-4.34,22.91-11l-10.08-7.51c-2.27,3.46-6.51,6.22-12.73,6.22-6.52,0-12.34-3.65-13.13-10.26h36.92a27,27,0,0,0,.2-4.64c0-16.1-11.36-24.29-24.28-24.29-15,0-26,11.16-26,25.77C602.29,119.92,613.74,130.09,628.45,130.09ZM615.91,98.3c1.29-6,6.91-8.58,12-8.58s10,2.66,11.15,8.58Z"/><path id="path22" class="cls-1" d="M703.21,129h13.42l16.29-49.36H718.41l-9.28,31.59L699.06,79.65H688.7l-10,31.59-9.37-31.59H654.93L671.32,129h13.43l9.18-28Z"/><path id="path24" class="cls-2" d="M77.11,86.05a14,14,0,1,0-14-14A14,14,0,0,0,77.11,86.05Zm31.65,43H76.2l29.4-70.1h32.56ZM28,58.91h28V129H28V87H0v-28Z"/><rect class="cls-3" width="800" height="205"/></g></g></svg>